<?xml version="1.0" encoding="UTF-8"?>
<svg xmlns="http://www.w3.org/2000/svg" viewBox="0 0 512 384" width="512" height="384">
<path d="M127.01 0.07C170.07 0.07 213.13 0.07 256.19 0.07C256.28 42.02 256.38 83.97 256.47 125.92C256.35 126.51 256.24 127.1 256.12 127.7C255.68 127.9 255.23 128.1 254.79 128.31C252.86 128.34 250.94 128.37 249.01 128.4C246.3 128.37 243.59 128.34 240.89 128.3C238.29 128.29 235.69 128.28 233.1 128.26C232.52 127.02 230.18 127.49 228.88 127.49C225.34 127.49 218.72 126.26 215.66 127.95C201.27 127.95 186.88 127.94 172.49 127.94C141.55 127.95 110.61 127.95 79.67 127.95C67.81 128.05 55.95 128.16 44.09 128.27C43.48 126.99 35.26 127.49 33.39 127.49C22.28 127.49 11.18 127.49 0.07 127.49C0.07 99.98 0.07 72.47 0.07 44.96C2.66 45.11 4.32 42.16 6.47 41.1C10.32 39.19 14.21 37.84 17.61 35C19.63 34.38 21.65 33.75 23.68 33.13C25.05 37.56 35.84 38.34 39.44 36.89C41.45 36.09 43.52 34.72 45.58 34.06C47.83 33.35 50.67 32.91 52.41 31.07C54.06 33.26 54.57 37.4 57.35 38.81C65.65 43.02 71.8 40.06 79.28 36.19C81.34 35.13 83.77 34.57 85.6 33.07C87.68 37.3 91.7 41.04 96.53 41.02C98.13 42.71 103.84 42.76 105.44 41.03C108.39 41.03 113.01 39.56 115.14 40.03C116.36 40.3 117.37 41.49 118.5 41.92C120.12 42.53 121.9 42.49 123.52 43.09C124.83 43.58 125.86 44.67 127.29 45C128.85 43.33 128 31.56 128.01 28.53C125.3 26.71 116.2 24.19 113.53 27C111.51 27.34 109.48 27.69 107.46 28.03C105.8 29.8 103.33 28.45 101.39 29.92C100.23 28.7 98.9 29.08 97.34 28.92C96.69 26.61 95.99 24.43 94.84 22.31C93.38 19.65 88.94 19.99 86.41 20C79.11 20.05 72.1 29.54 65.12 27.72C64.81 24.35 66.61 19.92 65.92 17.63C65 14.57 60.8 11.66 57.4 13.13C55.97 13.75 55 15.04 53.66 15.84C52.04 16.8 49.94 17.17 48.38 18.18C47.36 18.83 46.76 20.24 45.72 20.81C43.7 21.93 41.61 22.33 39.52 23.11C38.04 23.67 37.05 24.92 35.42 24.99C34.82 24.08 34.8 22.93 33.76 22.27C31.35 20.73 22.56 20.17 19.65 21.05C16.83 21.91 14.71 24 11.54 24.01C8.57 25.65 5.6 27.3 2.63 28.94C1.78 28.99 0.92 29.04 0.07 29.09C0.07 26.03 0.07 22.96 0.07 19.89C1.92 19.37 2.63 17.02 4.33 16.21C4.66 16.05 9.72 14.07 9.92 14.03C11.97 13.57 13.11 14.55 14.79 14.97C17.16 15.56 20.41 15.02 22.87 15.01C23.13 15 29.42 13.95 29.5 13.92C30.66 13.44 31.71 12.25 32.99 12.02C35.1 11.63 36.77 14.39 38.67 14.95C41.26 15.7 43.14 14.02 45.53 13.98C47.91 11.54 52.27 9.55 55.34 8.18C56.65 7.6 57.38 8.13 58.49 7.01C62.52 6.36 66.56 5.71 70.59 5.06C70.94 6.84 68.99 7.85 68.2 9.29C66.65 12.11 66.79 14.67 68.1 17.53C69.2 19.92 73.26 20.18 75.48 20.01C77.35 19.86 79.1 18.37 80.86 18.01C83.67 17.44 87.79 17.77 90.41 16.93C91.81 16.48 93.19 15.52 94.57 15.07C96.18 14.54 97.17 15.29 98.55 14.03C99.36 15.54 99.33 17.37 100.33 18.86C100.94 19.79 101.81 19.71 102.65 20.17C109.68 24.04 115.45 12.66 122.03 14.02C124.68 14.57 125.45 18.48 127.7 19.88C129.01 15.27 128.4 4.11 127.01 0.07ZM326.83 5.24C325.83 8.78 322.07 10.81 323.02 15.16C324.27 20.87 332.85 21.36 336.54 18C340.86 17.34 345.18 16.67 349.5 16C351.25 15.39 353 14.78 354.76 14.17C355.14 15.77 355.42 16.95 356.08 18.4C356.63 19.61 357.53 19.6 358.54 20.1C365.98 23.79 371.27 13.01 377.83 14.01C381.08 14.51 381.04 19.18 384.3 20C387.48 17.54 389.85 15.33 393.63 14.08C396 13.29 397.62 14.93 399.68 15.01C402.23 15.11 405.7 15.55 408.17 14.98C410.04 14.54 411.27 14.01 413.45 14C414.79 13.34 416.14 12.67 417.49 12C420.74 12.5 422.3 16.18 426.37 14.93C431.09 13.49 434.85 10.02 439.42 8.15C443.86 6.32 447.13 6.57 451.9 5.99C453.15 5.84 453.32 4.91 454.73 5.14C454.03 9.46 450.84 9.5 451.04 15.58C452.06 16.51 452.01 18.12 453.3 18.82C456.69 20.66 465.64 20.78 468.49 18.03C469.57 18.03 470.65 18.03 471.73 18.03C472.32 20.68 471.01 24.5 473.01 26.51C472.96 32.64 479.78 35.83 485.44 33.93C489.59 32.54 487.75 31.18 493.57 30.96C494.56 29.9 495.44 29.85 496.82 30.26C497.95 37.44 497 45.53 497 52.82C497 55.23 496.19 59.42 497.14 61.62C497.69 62.88 499.87 64.48 500.91 65.37C501.25 70.14 500.37 75.12 498.94 79.46C498.56 80.59 497.35 81.6 497.04 82.79C496.51 84.82 497.46 87.18 496.97 89.23C496.29 92.08 494.91 94.94 494.06 97.76C493.72 98.86 494.26 100.16 493.99 101.27C493.7 102.43 492.47 103.5 492.08 104.64C491.54 106.22 491.5 111.14 492.18 112.65C492.64 113.67 495.44 116.52 496.48 116.92C497.86 117.45 499.48 116.81 500.87 117.36C499.7 120.09 498.74 122.9 498.02 125.77C497.74 126.89 498.28 128.19 497.95 129.3C497.59 130.49 496.13 130.86 496 132.17C495.68 135.41 498.33 137.25 498 140.65C497.9 141.7 497.17 142.09 497.01 143.08C496.14 148.56 497.34 156.41 500 160.89C499.94 164.42 496.1 165.97 497.02 170.19C498.2 175.57 503.96 179.89 504.01 185.57C506.74 188.21 505.45 192.61 506.01 196.09C506.22 197.42 507.24 197.43 506.7 198.93C503.32 197.66 501.09 194.1 496.83 195.08C492.94 195.98 491.52 200.08 492 203.79C492.22 205.5 493.57 207.16 493.98 208.76C494.27 209.87 493.73 211.17 494.04 212.28C495.4 217.08 495.96 222.22 497.78 226.86C483.83 229.69 495.22 240.72 497.87 247.54C498.06 248.03 497.01 255.9 496.98 257.62C495.82 258.69 495.52 259.41 494.84 260.72C494.34 261.68 493.02 262.23 492.43 263.13C490.9 265.46 491.01 267.74 491 270.57C491.83 271.39 493.53 272.57 493.94 273.67C494.75 275.83 493.29 277.33 493.01 279.07C492.34 283.29 494.12 288.31 492.94 292.41C492.75 293.07 492.17 293.32 492.01 294.05C491.65 295.76 491.53 304.29 492.18 305.71C493.08 307.7 496.45 308.42 495.99 311.05C495.51 313.79 492.92 316.13 492.07 318.75C491.46 320.61 491.62 322.92 490.84 324.71C490.42 325.69 489.36 326.69 489.05 327.7C488.39 329.89 488.59 332.25 487.96 334.44C486.79 338.55 482.66 341.36 486.9 345.47C487.6 346.15 488.43 347.46 489.3 347.9C491.4 348.94 494.56 347.64 496.82 348.36C495.25 352.45 488.74 361.81 485.49 365.09C480.37 359.74 472.55 366.59 467.57 368.98C466.27 369.6 464.4 369.62 463.25 370.34C461.51 371.42 460.52 373.71 458.79 374.82C457.11 375.91 454.92 375.67 453.51 377.1C449.49 377.74 445.46 378.39 441.44 379.04C441.03 377.26 443.02 376.25 443.8 374.81C445.35 371.99 445.21 369.43 443.9 366.58C442.8 364.19 438.37 363.7 436.11 364.1C434.51 364.38 432.89 365.49 431.38 366.04C430.23 366.46 428.79 365.77 427.63 366.17C427.1 366.36 426.9 366.88 426.36 367.03C424.98 367.44 423.36 366.85 421.95 367.11C421.07 367.27 413.85 369.7 413.45 370.07C412.64 368.56 412.67 366.73 411.67 365.24C411.06 364.32 410.19 364.39 409.35 363.93C402.33 360.05 396.55 371.43 389.97 370.08C387.46 369.57 386.28 365.64 384.3 364.1C382.18 364.63 381.58 366.9 379.74 367.85C379.11 368.17 375.46 369.59 374.55 369.96C373.04 370.55 363.6 368.51 360.02 369.11C359.25 369.24 359.06 369.79 358.38 370.02C357.19 370.42 355.74 369.73 354.56 370.16C352.86 370.8 351.9 372.05 349.9 372.1C348.23 371.23 346.97 369.46 345.04 369.11C337.78 367.78 333.24 375.9 326.43 376.14C325.18 377.49 314.05 379.16 313.07 378.73C314.11 376.66 315.76 374.91 316.77 372.83C317.51 371.31 317.01 369.2 316.31 367.92C313.33 362.46 304.55 363.13 299.67 365.9C298.67 366.47 297.03 366.12 296.07 365.72C295.57 359.09 296.2 350.09 287.17 350.09C285.81 350.09 284.04 349.78 282.73 350.13C281.05 350.59 280.1 352.27 278.6 352.93C277.85 353.26 272.07 354.07 271.27 353.95C269.71 346.9 271 336.67 271.01 329.26C271.01 327.29 271.42 324.8 270.99 322.88C270.56 320.99 267.56 320.2 267.04 318.32C266.48 316.28 267.71 307.86 268.99 306.59C269.02 304.28 270.56 303.23 270.99 301.23C271.74 297.73 271.17 294.24 272.04 290.83C272.42 289.34 273.57 287.83 273.96 286.34C274.26 285.19 273.73 283.88 274.06 282.74C274.39 281.58 275.61 280.57 275.94 279.43C277.17 275.3 275.88 269.25 271.67 267.25C270.45 266.67 268.6 267.14 267.27 266.93C267.98 264.03 269.49 261.05 269.99 258.02C270.44 255.24 268.98 251.73 271 249.52C271 247.15 269.61 245.64 270.01 243.05C270.14 242.26 270.8 242.05 270.98 241.32C271.55 239.06 271.54 234.08 270.98 231.82C270.84 231.22 270.23 231.02 270.06 230.45C269.68 229.21 270.36 227.74 269.89 226.53C269.16 224.64 268.01 223.81 268 221.6C269 220.25 270 218.9 271 217.55C271 216.21 271 214.88 271 213.54C268.67 209.21 266.33 204.88 264 200.55C264.01 198.17 262.62 196.48 262.03 194.39C261.45 192.28 262.63 189.7 261.91 187.62C261.5 186.41 260.72 186.52 261.49 185.17C265.72 188.16 273.8 192.38 275.95 184.34C276.87 180.93 274.94 178.29 274.07 175.43C273.72 174.29 274.25 172.98 273.97 171.83C272.82 167.09 272.11 161.8 270.17 157.36C271.75 156.77 273.43 156.71 274.87 155.68C280.67 151.53 273.81 143.68 271.89 139.51C270.86 137.28 268.61 134.89 270.98 132.55C271.01 130.8 270.49 128.15 271.13 126.51C271.41 125.79 272.37 125.42 272.75 124.77C274.85 121.21 277.54 118.98 277 114.34C276.77 112.37 274.26 111.79 274.01 109.89C273.72 107.78 274.62 106.78 274.99 105.03C275.84 100.92 274.54 96.28 275 92.1C275.09 91.29 275.72 91.12 275.94 90.41C276.81 87.6 276.38 82.05 276 79.13C275.66 76.6 271.62 75.96 272.01 73.06C272.35 70.56 274.84 67.91 275.86 65.63C276.7 63.73 276.33 61.4 277.08 59.52C278.16 56.83 278.93 55.61 279.05 52.41C280.2 51.38 279.61 50.57 280.21 49.3C281.99 45.53 284.87 42.26 281.02 38.55C280.33 37.88 279.46 36.51 278.57 36.14C276.49 35.28 273.45 36.25 271.22 35.82C272.99 31.08 278.91 23.24 282.31 19.12C283.02 19.54 283.69 20.59 284.44 20.89C290.5 23.33 298.52 14.15 304.57 13.97C310.17 7.95 315.06 6.17 323.19 6C324.75 5.97 325.32 4.81 326.83 5.24ZM321.16 27.76C320.23 23.04 323.15 19.76 320.8 15.32C320.3 14.37 319.38 14.31 318.56 13.93C313.31 11.53 309.93 15.83 305.36 17.92C304.06 18.52 302.73 18.59 301.43 19.14C297 21 293.68 28.91 291.86 32.55C291.05 34.17 288.75 34.94 288.06 36.64C287.19 38.82 287.63 41.24 286.92 43.47C285.94 46.55 284.03 48.03 283.95 51.6C282.45 53.03 283 55.31 282.99 57.27C282.95 62.83 283.49 67.1 289.77 68.2C289.18 71.98 288.59 75.75 288.01 79.53C286.17 81.33 287.69 83.39 286.91 85.55C285.92 88.28 286.78 91.13 285.94 93.53C284.6 97.31 282.79 105.99 284.04 110.28C284.69 112.51 288.01 113.83 289 115.96C287.93 119.16 287.1 119.86 286.95 123.65C283.82 126.32 283.86 128.52 284.01 132.55C281.11 135.38 281.15 142.68 283.98 145.51C283.99 147.21 284.84 153.4 285.91 154.41C285.53 155.89 285.15 157.38 284.76 158.86C282.83 159.24 281.5 159.65 279.89 160.69C267.35 168.79 285.76 182.01 283.8 190.84C280.13 191.56 276.16 189.12 273.45 190.21C270.45 191.42 267.82 194.95 269.1 198.5C269.66 200.06 271.02 200.96 271.79 202.35C272.76 204.09 273.26 205.93 274.17 207.7C274.71 208.77 276.23 209.31 276.79 210.36C277.97 212.59 280.5 218.11 281 220.38C280.2 221.08 278.94 221.18 278.32 222.24C276.03 226.15 276.89 231.99 277.02 236.57C279.2 238.78 279.05 241.95 280.12 244.61C281.34 247.66 284.96 255.42 286.98 257.62C286.98 259.64 286.98 261.67 286.98 263.69C282.27 265.49 279.97 269.79 279.99 274.62C277.92 276.57 278.86 288.87 277.95 292.4C277.8 292.99 277.2 293.17 277.03 293.75C276.34 296.08 276.88 298.51 275.84 300.76C274.88 302.82 272.84 304.48 272.08 306.65C270.73 310.53 272.5 316.16 276.41 317.92C277.91 318.6 280.21 318 281.82 318.33C282.93 324.08 280.51 338.27 282.1 342.58C283.35 345.96 287.92 347.74 291.13 347.09C292.2 346.87 293.04 345.53 294.05 345.08C294.99 345.52 295.93 345.96 296.88 346.41C297.2 349.35 295.94 354.01 297.17 356.69C298.65 359.93 302.68 360.49 304.57 362.05C305.63 360.93 306.44 361.54 307.69 360.92C308.75 360.4 309.31 358.84 310.34 358.28C312.81 356.93 315.84 355.94 318.74 356.23C319.73 360.01 317.01 363.37 318.07 366.48C318.97 369.09 320.83 369.22 322.38 371.02C327.41 371.4 331.31 368.05 335.66 365.89C336.76 365.34 337.31 363.84 338.35 363.26C340.39 362.12 342.49 361.8 344.56 360.97C345.86 360.44 346.87 359.35 348.28 359.08C349.17 359.88 349.21 361.4 350.53 362.01C354.15 363.69 364.44 364.74 367.3 361.19C369.06 360.81 370.81 360.44 372.57 360.06C375.53 358.41 378.5 356.76 381.47 355.11C385.76 355.12 394.24 361.42 398.47 357.09C400.49 356.75 402.52 356.41 404.54 356.07C406.14 354.31 408.67 355.6 410.61 354.19C411.75 355.42 413.11 355.05 414.66 355.18C415.29 357.49 416.1 359.36 417.06 361.54C418.35 364.45 423 364.14 425.59 364.12C432.88 364.07 439.81 354.61 446.85 356.38C447.37 360.83 444.63 364.93 447.26 368.89C447.89 369.84 448.75 369.75 449.62 370.2C454.32 372.61 456.49 368.99 460.47 367.19C462.33 366.36 465.09 365.71 466.71 364.9C471.6 362.49 473.88 355.38 476.23 351.34C479.03 346.53 481.09 348.38 480.99 340.59C484.11 337.29 486.78 324.85 484.81 320.44C483.69 317.92 480.51 316.42 478.2 315.89C477.69 312.92 480.06 306.33 480.94 303.34C482.12 299.31 480.99 294.9 482.03 290.82C482.21 290.15 482.8 289.88 482.97 289.19C483.29 287.78 482.67 286.2 483.01 284.8C483.18 284.09 483.85 283.87 483.98 283.1C484.37 280.9 484.73 275.59 483.9 273.53C483.23 271.87 480.52 271.11 480.04 269.34C479.38 266.87 480.94 263.27 481.04 260.51C485.76 256.08 482.43 256.21 484.09 251.59C484.41 250.72 485.68 250.35 485.95 249.44C486.73 246.88 484.55 236.15 482.99 234.55C483 232.83 483.44 230.93 482.08 229.69C482.47 228.21 482.85 226.72 483.23 225.24C485.25 224.9 489.65 223.81 490.75 221.81C491.26 220.9 491.15 220.33 491.98 219.57C492.16 212.73 490.64 209.38 487.91 203.55C487.56 202.79 486.53 202.42 486.16 201.68C484.9 199.15 483.73 196.19 484.2 193.26C487.85 192.46 491.43 195 494.38 193.97C497.02 193.05 497.13 191.22 498.95 189.62C499.22 184.87 497.95 185.17 496.11 181.64C495.23 179.96 494.79 177.93 493.76 176.32C493.13 175.33 491.67 174.72 491.13 173.69C490.06 171.63 489.7 169.52 488.85 167.45C488.31 166.14 487.2 165.15 487.01 163.72C487.79 162.87 489.13 162.93 489.8 161.75C491.17 159.33 491.9 150.36 490.9 147.58C489.88 144.76 488.12 142.62 487.94 139.43C486.29 136.47 484.64 133.5 482.99 130.53C482.99 128.43 482.3 127.95 481 126.48C481.04 121.46 480.08 119.59 483.65 115.94C484.17 115.41 484.82 114.38 485.52 114.13C486.32 113.84 487.12 114.01 487.92 113.67C488.03 112.47 487.76 111.06 488.03 109.89C488.21 109.06 488.87 108.75 489 107.86C489.41 104.96 488.53 101.87 489 98.97C489.13 98.19 489.79 97.97 489.97 97.25C490.77 94.11 490.36 90.08 491.02 86.83C492.13 81.37 498.14 77.15 495.92 70.64C495.34 68.94 492.72 67.38 491.56 65.99C489.71 65.99 487.86 65.99 486.01 65.99C486.01 57.82 486.01 49.65 486.01 41.49C483.36 39.03 480.75 35.21 476.47 37.11C475.36 37.6 474.99 38.65 473.75 39.01C472.91 38.62 472.07 38.23 471.23 37.84C470.68 34.75 472.05 30.39 470.91 27.49C469.7 24.44 464.64 23.23 463.63 22.07C462.47 23.01 461.75 22.62 460.46 23.13C459.96 23.32 455.91 26.61 455.54 27.01C453.03 27.01 451.68 28.31 449.02 27.72C449.02 25.97 449.02 24.22 449.02 22.46C453.31 18.17 446.53 11.84 441.8 13.04C440.08 13.47 439 15.19 437.48 15.94C435.76 16.78 433.87 17.33 432.19 18.31C431.18 18.91 430.6 20.41 429.54 20.92C427.52 21.88 425.24 22.28 423.29 23.21C422.02 23.82 420.97 24.85 419.52 25.03C418.85 24.14 418.8 22.74 417.64 22.14C414.49 20.51 407.37 20.03 403.75 21.05C401.72 21.62 399.54 23.06 397.6 23.86C396.91 24.14 396.12 23.82 395.44 24.11C392.38 25.41 389.62 27.68 386.52 28.91C384.31 29.79 381.79 26.99 379.45 26.99C376.4 23.75 369.61 26.89 366.46 27.92C364.79 28.46 363.87 27.73 362.45 29.03C360.71 28.99 358.86 28.59 357.59 29.95C356.11 29.54 354.62 29.13 353.14 28.72C352.87 26.75 351.69 22.29 349.73 21.22C348.83 20.72 348.27 20.77 347.47 20.01C345.45 19.97 342.66 19.5 340.71 20.04C337.62 20.88 329.69 24.42 327.64 26.93C325.15 27.05 323.79 28.29 321.16 27.76ZM308.62 31.08C309.4 32.95 310.22 34.93 311.19 36.66C312.01 38.12 313.45 38.48 314.7 39.22C318.83 41.68 320.42 41.1 324.82 40.05C325.95 39.78 327.27 40.32 328.39 39.96C332.99 38.5 337.25 34.99 341.81 33.22C342.22 35.04 343.42 35.88 344.68 37.19C350.97 43.69 359.98 42.2 367.73 40.06C372.25 38.8 381.15 45.84 385.11 44.99C387.12 44.56 388.67 41.92 390.5 41.08C393.54 39.68 396.61 38.3 399.62 36.83C400.39 36.45 400.8 35.45 401.57 35.07C403.39 34.15 405.84 34.08 407.78 33.22C408.77 37.09 412.9 37.03 416.28 37.02C418.37 37.01 421.11 37.51 423.16 36.96C425.88 36.24 434.57 32.89 436.52 31.01C437.61 32.88 438.23 34.99 439.33 36.85C441.28 40.17 447.52 41.8 451.09 40.99C451.79 40.83 452.06 40.25 452.72 40.07C454.67 39.54 455.83 40.24 457.56 39.06C458.32 40.49 458.37 42.23 459.19 43.72C461.06 47.16 466.28 50.63 469.58 51.96C470.57 52.36 471.89 52.08 472.94 52.41C473.15 56.93 471.81 67.78 473.09 71.42C473.88 73.69 474.15 76.44 475.18 78.65C475.79 79.94 477.72 80.49 477.98 81.97C478.41 84.39 476.88 88.93 477.01 92.48C476.67 92.87 476.2 93.22 476.05 93.72C475.23 96.6 476.44 100.06 475.99 103.01C475.62 105.51 474.89 106.18 475.03 109.48C471.05 113.84 465.19 122.98 467.04 129.3C467.6 131.18 469.97 132.69 470.87 134.41C472.47 137.45 473.57 140.77 475.24 143.78C475.59 144.42 476.54 144.76 476.87 145.43C477.82 147.38 477.41 149.87 478.97 151.58C470.34 156.57 476.64 174.2 480.89 180.72C475.06 182.57 469.02 188.19 471.05 195.28C471.24 195.95 471.83 196.21 471.98 196.91C472.22 198.05 471.67 199.36 472.05 200.48C472.66 202.25 474.15 203.91 474.94 205.63C476.02 208.02 477.04 211.66 478.95 213.5C476.09 215.46 472.34 218.12 471.1 221.62C470.77 222.57 471.29 223.71 470.9 224.63C470.02 226.69 469.27 229.99 470.04 232.45C470.75 234.75 472.38 240.58 471.98 243.05C471.77 244.32 470.63 245.36 470.12 246.48C469.11 248.72 468.92 251.29 467.92 253.55C467.62 254.23 467.13 254.39 466.99 255.19C466.6 257.49 467.56 260.17 466.96 262.42C466.56 263.9 465.37 265.42 465.02 266.94C464.52 269.05 465.66 270.88 464.03 272.59C463.76 281.68 462.85 281.32 468.98 287.57C468.98 289.59 468.98 291.62 468.98 293.64C467.11 295.38 467.75 301.9 466.96 304.51C465.2 310.25 462.92 319.77 466.15 325.75C467.05 327.41 469.51 329.17 470.9 330.47C469.94 332.5 468.99 334.52 468.04 336.54C467.98 337.75 468.3 339.43 467.92 340.57C467.75 341.08 460.19 352.39 459.59 353.05C457.94 350.89 457.45 346.66 454.65 345.28C453.32 344.63 451.66 343.56 450.26 343.14C445.11 341.59 430.44 347.71 426.4 351.04C424.73 346.73 419.98 343.1 415.47 343.08C413.82 341.41 408.2 341.34 406.56 343.07C402.45 343.09 396.63 345.68 393.61 342.14C390.17 341.97 387.63 339.42 384.71 339.08C381.59 338.71 380.02 341.74 377.6 342.98C373.88 344.89 369.5 345.99 366.49 349.1C364.47 349.75 362.45 350.41 360.42 351.06C355.72 341.97 337.74 349.25 331.28 352.96C329.08 345.63 322.91 341.5 315.46 344C313.62 344.62 312.02 344.01 310.24 344.94C309.04 339.55 303.71 333.75 298.3 332.11C297.38 331.84 296.22 332.13 295.26 331.94C292.71 321.37 298.45 311.57 289.98 302.55C289.99 299.79 290.72 298.93 291 296.88C291.22 295.23 290.57 293.25 291.07 291.66C291.27 290.99 291.84 290.76 291.99 290C292.55 287.06 291.3 283.7 292.02 280.8C292.19 280.08 292.86 279.85 292.99 279.06C293.22 277.66 292.65 276.02 293.07 274.65C293.75 272.47 295.94 271.57 296.88 269.6C297.45 268.38 300.39 262.14 300.95 261.67C301.36 252.7 299.57 254.35 296.12 247.66C294.52 244.56 293.7 241.08 291 238.6C290.34 236.57 289.68 234.55 289.02 232.52C289.91 231.94 291.14 231.88 291.73 230.79C293.21 228.09 294.14 217.87 292 215.53C291.99 212.8 288.58 205.89 287.1 203.38C292.53 201.44 296.95 197.93 297 191.65C297.02 190 297.25 188.77 296.02 187.6C295.95 180.87 291.15 176.3 289.19 170.29C291.04 169.74 291.96 168.6 293.32 167.23C296.93 163.58 299.05 157.27 297.99 151.98C297.56 149.86 295.27 142.44 296.1 140.45C296.49 139.52 297.35 138.63 297.78 137.7C298.38 136.41 297.82 135.64 298.96 134.58C299.01 132.21 300.44 130.98 300.99 128.91C300.28 127.27 300.01 126.46 300.02 124.46C301 122.16 301.97 119.87 302.95 117.58C303.15 112.57 305.29 106.95 303.95 101.81C303.4 99.69 300.21 98.67 299.24 96.8C298.39 95.16 299.87 84.59 300.96 83.58C301.13 79.8 302.23 77.53 302.97 74.19C303.88 70.08 303.04 64.73 303 60.51C301.02 58.22 299.04 55.92 297.06 53.63C297.39 52.55 297.72 51.47 298.06 50.39C300.01 48.69 300.03 45.98 299.99 43.51C302.86 39.37 305.74 35.22 308.62 31.08ZM114.03 255.95C102.72 256.08 91.41 256.21 80.1 256.34C68.11 256.24 56.11 256.15 44.12 256.05C43.73 252.02 45.78 248.99 46.92 245.45C47.36 244.08 46.79 242.44 47.01 241.03C47.13 240.24 47.78 240.02 47.97 239.29C48.61 236.78 48.1 233.1 48.01 230.5C47.91 227.84 44.09 226.89 43.12 224.65C42.67 223.64 42.98 221.88 43 220.79C43.01 219.32 42.93 218.59 43.97 217.55C44.01 215.23 44.41 208 45.96 206.62C46.11 202.4 48.54 192.56 46.86 188.49C45.72 185.73 43.12 183.71 41.01 181.53C41.7 180.82 43.64 176.46 43.96 175.37C44.32 174.14 43.68 172.68 44.15 171.46C44.93 169.44 46.91 168.51 47.86 166.67C49.16 164.16 50.49 161.25 52.41 159.08C53.74 160.61 54.21 162.97 55.21 164.77C56 166.18 57.52 166.64 58.76 167.28C64.64 170.31 67.89 168.59 73.87 167.36C74.9 174.55 82.44 179.09 88.84 180.29C89.81 186.07 87.51 193.9 89.05 199.32C89.7 201.62 90.23 204.3 91.1 206.57C91.62 207.9 93.63 208.43 93.98 209.87C94 209.97 93.07 219.91 92.97 220.34C92.79 221.05 92.13 221.25 92 222.02C91.51 224.98 92.71 228.4 91.96 231.3C91.79 231.98 91.19 232.24 91.02 232.94C90.41 235.48 91.07 237.38 89.81 239.72C89.25 240.77 87.73 241.32 87.19 242.39C86.14 244.45 83.98 247.2 84.02 249.52C82.5 251.21 83 253.4 82.97 255.6C87.99 255.6 93 255.6 98.01 255.6C96.72 254.29 97 252.91 97 251.14C96.98 246.11 98.63 242.85 103.82 241.84C105.41 234.11 104.62 225.77 106.93 218.34C107.27 217.23 106.75 215.92 107.02 214.8C107.87 211.29 110.45 208.81 111.88 205.59C112.65 203.85 112.02 200.43 111.98 198.53C110.47 197.04 108.96 195.55 107.46 194.06C105.71 193.99 103.95 193.92 102.2 193.85C100.84 187 103.61 176.04 101.95 169.81C101.03 166.33 96.01 164.38 92.89 165.06C91.73 165.32 91.13 166.62 90.06 167.06C89.08 166.62 88.1 166.18 87.12 165.74C86.83 162.83 88.06 158.01 86.83 155.38C85.36 152.25 80.8 151.4 79.53 150.06C78.43 151.08 77.68 150.63 76.42 151.15C75.37 151.59 74.74 153.13 73.83 153.77C71.69 155.28 68.03 156.22 65.37 155.97C64.15 152.12 68.22 144.51 63.63 142.19C62.02 141.37 59.47 140.33 57.55 141.11C56.01 141.74 54.97 143.24 53.52 143.94C51.57 144.88 49.52 146.16 47.51 146.92C46.83 147.19 46.03 146.86 45.37 147.17C42.42 148.56 38.06 154.64 37.95 157.65C37.28 158.23 32.57 163.59 32.19 164.32C31.04 166.53 31.83 169.38 30.92 171.58C30.23 173.26 28.91 174.82 28.14 176.46C27.7 177.39 28.22 178.52 27.92 179.48C25.81 186.2 25.63 194.29 33.8 196.25C33.53 198.36 33.27 200.47 33 202.57C31.38 204.19 30.95 210.92 31.02 213.5C29.79 214.86 29.02 225.22 28.96 227.67C27.76 228.74 27.39 237.25 28.19 238.77C29.22 240.74 31.89 241.87 33 243.86C32.37 246.93 30.92 247.74 31.02 251.55C30.02 252.63 29.01 253.71 28.01 254.79C28.24 255.24 28.47 255.7 28.7 256.16C26.82 256.25 24.94 256.33 23.06 256.41C20.38 256.14 17.7 255.87 15.01 255.6C16.99 252.63 18.96 249.66 20.93 246.69C20.93 244.94 20.92 243.18 20.92 241.43C18.3 239.16 18.01 238 18 234.55C19.72 232.84 19 229.58 19 227.26C19 224.97 18.59 222.23 19.01 219.98C19.15 219.25 19.74 219.03 19.94 218.35C20.4 216.85 20.42 208.08 19.92 206.64C19.05 204.18 16.06 203.96 16 200.95C17.8 197.62 19.93 193.95 20.95 190.39C21.2 189.51 20.8 188.51 21.08 187.63C21.43 186.56 22.45 185.63 22.88 184.62C23.01 184.33 24.02 178.02 24.03 177.48C25 175.86 25.98 174.24 26.96 172.62C26.97 171.27 26.99 169.92 27 168.58C25.49 167.06 23.98 165.55 22.46 164.04C20.01 163.94 17.56 163.83 15.1 163.72C18.47 158.1 21.71 151.74 26.51 147.05C30.45 151.03 34.37 148.18 38.35 146.21C40.99 144.91 43.72 143.26 46.43 142.17C47.13 141.89 47.94 142.2 48.63 141.89C52.73 140.03 53.12 135.1 60.51 135.03C61.31 134.22 69.97 133.12 70.89 133.36C68.26 137.29 65.63 140.99 68.19 145.74C68.88 147.02 70.5 146.99 71.44 148C74.08 148.08 77.73 148.67 80.29 148C82.94 147.31 84.78 145.51 87.86 146.31C87.92 148.74 87.97 151.16 88.03 153.58C89.4 154.9 88.49 155.99 89.11 157.58C89.52 158.61 92.36 161.41 93.37 161.87C96.03 163.07 101.28 162.11 103.64 160.89C104.36 160.51 104.72 159.43 105.5 159.14C106.72 158.69 108.2 159.38 109.43 158.98C110.81 158.52 111 157.89 112.72 158.18C112.83 168.66 112.93 179.14 113.03 189.62C119.56 195.61 116.14 197.14 115.97 204.6C114.92 205.6 115.33 206.12 114.94 207.41C114.59 208.56 113.36 209.59 113.05 210.73C112.48 212.74 113.39 215.1 112.98 217.14C112.66 218.74 112.01 219.71 111.98 221.6C110.04 223.46 110.08 227.08 109.92 229.69C105.91 233.16 107.36 242.63 112.38 244.88C113.65 245.46 115.41 244.95 116.77 245.25C116.56 246.43 115.62 247.36 115.13 248.46C114.95 248.87 114.02 255.32 114.03 255.95ZM256.26 151C256.23 156.54 256.2 162.08 256.17 167.61C256.05 163.62 255.92 159.62 255.8 155.62C254.11 156.54 251.67 154.38 249.93 154.05C244.51 153.01 239.16 155.34 234.48 156.96C232.76 157.55 231.06 156.37 229.69 157.88C228.21 157.54 226.72 157.2 225.24 156.86C223.53 150.55 220.57 146.75 213.1 148.04C211.72 148.28 211.06 149.03 209.45 149.07C208.91 149.63 200.67 154.45 199.63 154.89C198.33 155.44 197.6 154.94 196.5 156.04C195.42 156 194.34 155.96 193.26 155.92C192.35 152.23 194.79 149.37 193.98 145.91C193.51 143.9 192.24 142.76 190.51 141.96C183.92 138.93 179.91 146.76 173.43 147.09C170.45 150.28 166.1 153.05 165.97 157.65C163.99 159.94 162 162.23 160.02 164.53C160.01 165.01 158.97 171.43 158.87 171.65C158.14 173.32 156.52 175.01 156.03 176.79C154.77 181.47 155.95 186.42 154.98 191.23C154.83 191.96 154.15 192.24 154 192.98C153.09 197.4 154.01 202.91 153.98 207.43C153.96 211.56 153.65 217.09 158.51 218.94C162.25 220.38 163.55 217.73 166.15 217.04C167.06 217.48 167.97 217.92 168.87 218.36C169.29 221.32 167.93 225.74 169.07 228.46C169.78 230.14 172.19 231.68 173.43 233.02C174.51 233.34 175.59 233.66 176.67 233.98C177.61 233.68 178.56 233.37 179.5 233.07C181.02 231.53 182.47 229.95 184.44 229.18C185.77 228.66 186.42 229.02 187.6 228.05C188.68 228.14 189.76 228.23 190.84 228.31C190.56 231.74 190.28 235.17 190 238.6C190.81 239.36 190.73 239.93 191.24 240.83C192.56 243.12 196.26 243.13 198.53 243.05C200.93 240.56 204.73 239.43 207.71 237.86C208.76 237.31 209.3 235.79 210.36 235.25C212.51 234.15 218.24 231.44 220.38 231.05C221.06 231.87 221.12 233.13 222.19 233.75C223.09 234.28 223.68 234.19 224.43 235.02C228.48 235.02 232.52 235.02 236.57 235.02C239.08 232.32 249.75 230.63 253.57 227.05C254.35 227.18 255.14 227.32 255.92 227.45C255.95 229.21 255.97 230.97 256 232.73C256.09 232.85 256.17 232.98 256.26 233.1C254.88 237.28 253.84 238.77 249.59 240.12C248.46 240.48 247.44 241.7 246.27 242.02C244.11 242.6 242.8 241.45 241.02 241.08C238.64 240.58 234.52 240.66 232.12 241.07C231.33 241.21 231.13 241.75 230.45 241.98C229.23 242.4 227.75 241.71 226.53 242.14C224.97 242.69 223.88 244.33 222 244.05C219.14 243.62 217.83 239.61 213.53 241.17C206.97 243.55 201.12 247.91 194.41 250.01C192.63 250.56 190.26 249.91 188.41 250.06C186.99 250.18 186.66 251.04 185.17 250.83C185.66 248.52 188.06 246.82 188.9 244.58C189.51 242.97 188.97 241.04 188.21 239.76C185.43 235.11 180.71 235.96 175.46 236.09C173.88 237.72 170.38 238.26 168.17 237.82C167.74 235.58 168.47 233.12 167.98 230.91C166.54 224.39 162.41 220.15 154.82 222.09C153.08 222.54 152.15 224.21 150.64 224.89C149.77 225.29 143.83 226.02 143.08 225.69C142.46 218.23 142.04 204.42 144.06 197.73C144.71 195.56 148.25 194.58 148.93 192.43C149.41 190.94 148.6 189.15 149.05 187.66C149.4 186.52 150.62 185.5 150.95 184.34C151.5 182.43 150.54 181.11 152 179.5C152.02 174.39 158.21 171.61 153 166.55C152.27 165.84 151.28 164.34 150.29 164.08C147.99 163.47 145.41 164.35 143.1 163.72C146.96 158.14 149.79 152.25 154.41 147.09C155.04 147.58 155.75 148.64 156.48 148.92C161 150.65 168.62 145.02 172.47 143.13C173.8 142.47 175.58 142.47 176.8 141.76C179.3 140.31 180.69 137.46 183.33 136.2C184.52 135.64 188.82 134.22 190.03 134.04C192 133.77 194.15 134.42 196.09 134.02C197.05 133.82 197.47 133.19 198.53 133.04C198.62 136.7 193.57 138.91 195.08 143.46C196.2 146.81 202.36 150.5 205.41 147.09C207.02 147.02 212.51 146.03 213.5 145.03C218.41 145.05 222.38 143.44 226.81 142.27C227.17 143.85 227.4 145.09 228.08 146.54C229.09 148.68 233.61 149.78 235.66 148.85C239.16 147.27 246.45 140.98 250.31 142.09C251.02 142.29 255.57 147.78 255.94 148.62C256.24 149.3 256.02 150.25 256.26 151ZM255.88 173.31C255.88 185.81 255.88 198.31 255.88 210.81C253.39 211.41 251.87 213.53 249.77 214.77C246.2 216.9 241.38 217.72 238.6 221.03C236.57 221.7 234.55 222.37 232.52 223.05C231.9 222.2 231.81 220.92 230.76 220.32C228.21 218.86 217.64 217.9 215.53 220.06C213.1 220.05 205.48 223.46 203.38 225C202.48 222.7 201.12 218.51 198.68 217.22C197.23 216.45 195.7 216.26 194.48 215.05C192.35 215.05 189.09 214.32 187.6 216.01C185.61 216.07 183.98 215.84 182.34 216.97C181.11 213.18 178.68 208.57 174.78 206.32C173.39 205.52 171.71 205.37 170.6 204.12C169.45 204.01 168.3 203.9 167.15 203.79C166.76 200.73 166.28 195.87 167.03 192.86C167.24 192.03 167.89 191.75 168 190.84C168.29 188.58 167.37 185.78 168.05 183.6C168.93 180.83 171.03 178.2 171.92 175.4C172.32 174.16 171.65 172.7 172.11 171.49C172.87 169.47 174.82 168.55 175.8 166.72C176.99 164.52 178.48 160.33 180.72 159.19C185.1 172.99 197.58 169.68 207.29 164.22C209.29 163.1 211.79 162.68 213.5 161.05C218.73 168.65 224.52 171.64 233.75 169.08C235.8 168.51 237.8 169.86 239.41 168.09C245.62 167.95 250.12 171.87 255.88 173.31ZM176.11 255.83C187.7 255.94 199.28 256.05 210.87 256.17C211.19 259.28 211.39 264.33 209.04 266.52C208.84 271.51 206.67 277.18 208.03 282.29C208.61 284.51 212.16 285.49 212.9 287.6C213.84 290.3 212.05 296.48 211.93 299.71C210.85 300.7 209.97 306.93 210.02 308.62C208.06 310.46 208.95 320.5 209 323.59C210.98 325.89 212.95 328.18 214.93 330.47C214.6 331.55 214.28 332.63 213.95 333.71C211.59 335.81 212.99 338.35 211.85 340.78C211.26 342.03 204.11 352.46 203.38 353.03C201.31 347.13 196.08 341.26 188.82 343.13C188.14 343.3 187.86 343.9 187.18 344.06C185.28 344.51 184.03 343.8 182.34 345C180.37 338.5 174.55 332.36 167.36 332.01C164.21 321.94 171.02 312.27 161.99 302.55C162 301.2 162.01 299.85 162.03 298.5C163.71 296.97 162.8 294.53 163 292.43C163.1 291.37 163.82 290.99 163.99 290C164.48 287.11 163.63 284 164 281.1C164.11 280.27 164.75 280.1 164.95 279.37C165.36 277.89 164.59 276.11 165.07 274.64C165.77 272.53 167.78 271.58 168.79 269.7C171.22 265.15 172.88 262.04 173.03 256.61C174.02 256.47 175.01 256.34 176 256.2C176.03 256.08 176.07 255.95 176.11 255.83ZM233.1 255.84C235.55 256.56 239.1 255.13 241 256.81C239.98 260.39 235.34 262.68 235 266.52C234.51 272.12 237.58 271.15 237.99 274.21C238.28 276.32 237.38 277.33 237.01 279.07C236.13 283.29 238 288.13 236.99 292.32C236.77 293.21 236.08 293.41 236 294.45C235.79 297.29 235.02 303.06 236.12 305.67C236.95 307.63 240.04 308.22 240 310.64C239.96 313.24 237.16 316.18 236.14 318.47C235.3 320.36 235.68 322.7 234.92 324.57C234.49 325.62 233.47 326.57 233.09 327.66C232.47 329.48 233.65 331.07 232.05 332.5C231.85 337.39 226.22 341 230.98 345.56C231.75 346.3 232.7 347.78 233.76 348.05C235.95 348.63 238.53 347.85 240.78 348.28C239.03 352.98 233.08 360.9 229.69 364.97C228.98 364.56 228.31 363.52 227.56 363.21C221.53 360.76 213.46 369.94 207.43 370.14C201.81 376.15 196.96 377.92 188.81 378.1C187.26 378.13 186.68 379.3 185.17 378.86C185.82 376.53 188.19 374.84 188.93 372.51C191.42 364.8 181.28 362.81 175.86 364.13C173.18 364.78 171.18 366.73 168.17 365.86C167.79 363.62 168.56 360.99 167.96 358.82C167.74 358.04 167.06 354.82 166.77 354.36C164.39 350.47 158.85 348.56 154.48 350.2C152.99 350.76 152.05 352.24 150.68 352.89C149.96 353.23 144.08 354.06 143.27 353.95C141.91 349.72 143 335.37 143 330.07C143 327.96 143.69 324.38 142.83 322.46C142.1 320.84 139.39 320.04 139.01 318.24C138 313.35 141.01 309.15 141 304.57C144.07 301.52 141.22 296.17 143.96 293.64C144.31 291.62 144.65 289.59 145 287.57C146.56 286.02 145.47 284.63 146.06 282.73C146.42 281.58 147.65 280.53 147.97 279.39C149.14 275.16 147.88 269.43 143.73 267.29C142.24 266.52 140.47 267.44 139.03 266.55C140.5 264.89 142.01 258.78 141.99 256.61C145.28 256.61 156.53 255.61 158.72 257.21C158.79 259.37 158.86 261.53 158.93 263.69C154.29 265.71 151.94 269.66 151.99 274.62C149.93 276.66 150.81 288.78 149.97 292.33C149.83 292.94 149.22 293.12 149.04 293.7C148.32 296 148.91 298.46 147.89 300.7C146.93 302.79 144.89 304.42 144.1 306.63C142.75 310.38 144.51 316.34 148.45 317.97C150.01 318.62 152.2 317.94 153.85 318.33C155.48 324.61 152.25 336.56 154.03 342.39C155.05 345.71 160.32 348.27 163.48 347.03C164.27 346.72 165.06 345.58 165.74 345.07C166.75 345.47 167.76 345.86 168.77 346.26C169.53 349.27 167.72 353.99 169.19 356.71C171.08 360.24 174.32 360.3 176.67 361.99C177.68 360.84 178.52 361.51 179.75 360.87C180.34 360.56 184.04 357.56 184.36 357.17C186.86 357.03 188.2 355.79 190.84 356.35C191.63 361.06 188.85 364.39 191.2 368.78C191.71 369.74 192.64 369.77 193.46 370.16C199.04 372.79 201.77 367.87 206.63 366.1C207.89 365.64 209.3 365.5 210.58 364.98C214.65 363.35 218.43 354.92 220.14 351.56C220.95 349.97 223.33 349.17 223.92 347.46C224.67 345.25 224.34 342.84 225.08 340.63C226.09 337.57 227.92 336.03 228.04 332.5C229.55 331.08 229.01 328.78 228.99 326.83C228.95 321.28 228.61 316.97 222.22 315.9C222.81 312.12 223.41 308.35 224 304.57C225.77 302.72 224.31 300.72 225.09 298.56C225.99 296.08 225.18 293.05 226.07 290.6C227.31 287.18 229.04 277.65 227.95 273.82C227.41 271.94 224.44 271.14 224.01 269.25C223.85 268.52 224.85 261.18 225.12 260.53C225.76 258.92 227.68 258.49 228.07 256.61C229.47 256.61 232.47 257.17 233.1 255.84ZM158.66 256.08C163.25 256.08 167.83 256.08 172.42 256.08C167.83 256.08 163.25 256.08 158.66 256.08ZM0.07 364.21C0.07 361.52 0.07 358.84 0.07 356.15C1.87 356.79 3.67 357.42 5.46 358.05C8.16 358.06 10.86 358.07 13.56 358.07C16.05 355.33 24.28 356.29 26.51 354.13C27.75 355.35 29.01 355.04 30.65 355.16C33.98 363.19 33.84 364.22 43.51 364.09C44.61 363 45.35 363.52 46.64 362.93C49.72 361.52 54.08 359.59 56.46 357.1C58.93 357.1 60.27 355.75 62.88 356.38C62.91 358.13 62.95 359.88 62.99 361.64C59.82 364.68 63.37 370 66.65 371.03C67.81 371.4 69.44 371.11 70.63 371.03C72.69 368.62 77.56 366.38 80.45 365.23C81.15 364.95 81.95 365.27 82.65 364.94C87.53 362.67 89.89 355.33 92.18 351.39C93.64 348.86 95.92 348.77 96.07 345.45C97.67 344.03 96.47 342.41 97.1 340.61C98.28 337.22 99.16 337.11 100.02 332.91C100.16 332.24 100.73 332.04 100.95 331.43C101.93 328.66 100.78 324.5 101.01 321.57C101.09 320.49 101.8 320.11 101.98 319.13C102.66 315.36 102.02 310.84 102.01 307C102 304.44 102.92 299.72 101.84 297.41C100.38 294.28 95.83 292.03 92.56 293.15C91.63 293.47 90.98 294.65 90.06 295.07C89.04 294.59 88.03 294.12 87.02 293.64C87 290.27 86.98 286.9 86.95 283.52C85.6 282.26 84.3 280.22 82.69 279.29C81.43 278.57 80.68 279.26 79.53 278.06C78.37 279.18 77.7 278.66 76.36 279.26C75.25 279.75 74.71 281.34 73.69 281.91C71.36 283.21 67.98 284.33 65.28 283.93C64.21 279.33 67.33 275.68 64.79 271.38C63.64 269.45 59.76 268.49 57.69 269.12C56.02 269.62 55.06 271.23 53.56 271.94C51.83 272.77 49.92 273.35 48.24 274.32C47.22 274.91 46.67 276.37 45.64 276.93C44.22 277.7 42.7 277.92 41.49 279.08C39.46 279.73 37.44 280.38 35.42 281.03C34.93 280.1 34.7 278.81 33.63 278.25C29.35 276 20.14 275.95 16.39 279.08C10.45 279 5.91 285.48 0.07 284.98C0.07 282 0.07 279.02 0.07 276.05C1.92 275.42 2.69 272.95 4.42 272.19C6.25 271.39 7.95 271.61 9.51 270.07C10.86 270.08 12.21 270.09 13.56 270.1C15.56 272.23 21.65 271.07 24.49 271.07C24.85 270.72 33.73 268.08 34.61 268.13C41.06 275.48 49.15 266.78 55.51 264.15C57.35 263.39 59.95 262.56 61.84 262.07C63.77 261.58 66.04 262.45 68 262.07C69.1 261.85 69.39 261.17 70.63 261.14C70.74 263.53 67.8 265.46 67.07 267.75C66.53 269.42 67.12 271.03 67.81 272.36C69.86 276.34 75.81 277.33 80.32 276.02C81.56 275.65 82.08 275.08 83.58 275.03C84.72 273.78 86.12 273.97 87.72 274.21C87.81 276.64 87.91 279.07 88 281.5C89.27 282.97 88.41 284.23 89.21 285.8C92.27 291.79 101.43 291.45 105.44 287.11C107.91 286.86 110.38 286.61 112.86 286.36C113.64 293.21 113 300.49 113 307.4C113 309.66 113.79 313.75 112.8 315.78C111.81 317.82 108.63 319.95 107.01 321.57C106.99 323.95 106.59 325.86 105 327.64C104.99 330.17 104.64 332.18 103.94 334.48C103.05 337.39 99.53 340.19 101.2 343.75C101.62 344.66 102.96 345.51 103.66 346.22C104.16 346.74 104.82 347.74 105.5 347.99C107.65 348.78 110.53 347.81 112.78 348.28C111.79 351.28 104.02 363.04 101.39 365.03C95.6 358.44 85.97 370.05 79.53 370.1C74.9 374.37 72.29 376.64 66.17 378.07C64.25 378.52 62.06 377.86 60.1 378.11C58.85 378.26 58.68 379.2 57.27 378.96C57.97 374.63 61.17 374.61 60.96 368.52C59.17 366.91 59.04 365.13 56.44 364.19C53.16 363.02 50.05 365.19 47.29 366.06C44.26 367.01 40.98 366.44 37.85 367.12C36.33 367.45 34.82 368.62 33.35 369.04C31.76 369.5 30.78 369 29.34 370.01C28.83 368.37 28.61 366.93 27.8 365.4C27.29 364.44 26.36 364.42 25.54 364.03C18.22 360.56 14.07 369.6 7.49 370.09C3.09 370.42 3.55 365.21 0.07 364.21ZM0.07 339.14C0.07 326.47 0.07 313.79 0.07 301.12C2.72 301 4.17 298.33 6.39 297.23C9.4 295.73 12.49 294.33 15.52 292.96C16.28 292.62 16.66 291.56 17.39 291.22C19.41 290.28 21.74 290.5 23.68 289.21C25.08 293.71 35.57 294.31 39.43 293.01C42.1 292.11 44.6 290.14 47.56 290.03C49.2 289.08 50.84 288.12 52.49 287.17C53.6 288.96 54.21 291.15 55.35 292.94C59.06 298.78 68.62 297 73.73 295.26C75.44 300.67 79.92 306.16 85.63 308.01C86.65 308.34 87.8 308.02 88.84 308.34C89.24 311.31 89.81 316.6 88.96 319.5C88.75 320.2 88.1 320.37 88 321.18C87.72 323.44 88.61 326.27 87.94 328.43C86.59 332.76 83.89 335.68 84.01 340.59C81.17 344.76 78.33 348.92 75.48 353.09C74.1 350.79 73.41 346.95 70.84 345.43C61.62 339.99 50.46 346.03 42.3 350.97C40.5 345.01 27.09 338.84 22.46 343.11C18.05 343.04 13.05 345.71 9.51 342.12C6.36 341.12 3.22 340.13 0.07 339.14Z" fill="#99e550" fill-rule="evenodd" stroke="#99e550" stroke-width="0.25" stroke-linejoin="round"/>
<path d="M6.92 0.07C12.3 0.07 17.67 0.07 23.05 0.07C23.11 0.65 23.17 1.24 23.24 1.82C24.33 1.88 25.42 1.94 26.51 1.99C27.19 1.66 27.86 1.32 28.53 0.98C28.72 0.68 28.91 0.37 29.09 0.07C48.69 0.07 68.29 0.07 87.89 0.07C87.29 1.6 86.69 3.13 86.09 4.65C86.83 4.86 99.87 1.61 100.58 1C102.08 1 104.29 1.52 104.89 0.07C107.57 0.07 110.26 0.07 112.95 0.07C113.41 1.01 113.88 1.96 114.34 2.91C116.36 2.27 118.39 1.64 120.41 1C120.61 0.69 120.81 0.38 121.01 0.07C123.01 0.07 125.01 0.07 127.01 0.07C128.4 4.11 129.01 15.27 127.7 19.88C125.45 18.48 124.68 14.57 122.03 14.02C115.45 12.66 109.68 24.04 102.65 20.17C101.81 19.71 100.94 19.79 100.33 18.86C99.33 17.37 99.36 15.54 98.55 14.03C97.17 15.29 96.18 14.54 94.57 15.07C93.19 15.52 91.81 16.48 90.41 16.93C87.79 17.77 83.67 17.44 80.86 18.01C79.1 18.37 77.35 19.86 75.48 20.01C73.26 20.18 69.2 19.92 68.1 17.53C66.79 14.67 66.65 12.11 68.2 9.29C68.99 7.85 70.94 6.84 70.59 5.06C66.56 5.71 62.52 6.36 58.49 7.01C57.38 8.13 56.65 7.6 55.34 8.18C52.27 9.55 47.91 11.54 45.53 13.98C43.14 14.02 41.26 15.7 38.67 14.95C36.77 14.39 35.1 11.63 32.99 12.02C31.71 12.25 30.66 13.44 29.5 13.92C29.42 13.95 23.13 15 22.87 15.01C20.41 15.02 17.16 15.56 14.79 14.97C13.11 14.55 11.97 13.57 9.92 14.03C9.72 14.07 4.66 16.05 4.33 16.21C2.63 17.02 1.92 19.37 0.07 19.89C0.07 14.89 0.07 9.9 0.07 4.91C0.52 4.62 0.97 4.33 1.42 4.05C3.75 3.96 7.11 2.89 6.92 0.07ZM299.94 0.07C314.64 0.07 329.33 0.07 344.02 0.07C343.42 1.64 342.81 3.22 342.21 4.8C343.96 4.2 345.72 3.61 347.47 3.01C348.79 3 354.37 2.31 355.49 1.91C356.06 1.71 356.24 1.13 356.89 1.01C358.36 0.72 360.31 1.69 361.02 0.07C363.71 0.07 366.4 0.07 369.08 0.07C369.57 1.05 370.06 2.02 370.54 3C371.89 2.65 373.24 2.3 374.59 1.95C375.35 1.32 376.11 0.7 376.88 0.07C378.89 0.07 380.91 0.07 382.93 0.07C383.27 0.52 383.61 0.97 383.95 1.42C384.07 2.57 384.19 3.72 384.3 4.88C386.61 3.46 390.98 3.73 390.99 0.07C396.36 0.07 401.74 0.07 407.11 0.07C407.16 0.65 407.2 1.24 407.24 1.82C408.36 1.86 409.49 1.9 410.61 1.94C410.88 1.64 411.15 1.34 411.42 1.04C411.83 1 412.23 0.96 412.64 0.92C412.72 0.64 412.81 0.35 412.89 0.07C429.89 0.07 446.89 0.07 463.89 0.07C463.96 1.6 464.02 3.13 464.09 4.65C469.83 6.36 482.21 1.98 484.9 9.54C485.72 11.84 484.85 15.2 485.08 17.65C487.51 18.36 488.66 17.57 490.77 17.04C492.18 16.68 493.78 17.3 495.19 16.97C500.22 15.8 506.55 14.36 509.75 20.24C510.67 21.92 510 25.42 510 27.32C510 33.39 510 39.46 510 45.53C510 48.08 508.88 53.04 511.93 53.89C511.93 63.97 511.93 74.05 511.93 84.13C510.01 84.92 510.01 90.77 510 92.89C509.98 96.47 504.76 102.92 511.93 104.9C511.93 113.25 511.93 121.61 511.93 129.96C510.96 131.09 509.98 132.23 509 133.36C509.96 134.54 510.39 134.96 511.93 135.13C511.93 140.42 511.93 145.71 511.93 150.99C511.35 151.09 510.76 151.19 510.18 151.29C510.18 152.46 510.18 153.63 510.18 154.8C510.52 155.48 510.87 156.16 511.21 156.84C511.45 156.91 511.69 156.97 511.93 157.04C511.93 176.73 511.93 196.42 511.93 216.11C510.4 215.45 508.87 214.8 507.35 214.15C506.9 215.52 507.93 218.47 509 219.57C509 220.78 509.73 226.59 510.1 227.58C510.32 228.15 510.88 228.31 511 228.97C511.26 230.44 510.33 232.38 511.93 233.11C511.93 235.8 511.93 238.48 511.93 241.17C511.04 241.53 510.14 241.88 509.24 242.24C509.52 243.72 509.8 245.21 510.07 246.69C510.69 247.45 511.31 248.21 511.93 248.97C511.93 252.04 511.93 255.1 511.93 258.17C511.06 258.53 509.25 263.2 509 264.5C510.99 266.61 512.15 270.55 510.93 273.54C510.12 275.54 507.89 276.57 507.04 279.89C505.76 284.83 505.84 290.29 506.05 295.66C507.45 296.93 510.01 298.79 510.86 300.48C512.55 303.84 510.68 313.12 508.05 315.5C507.89 319.63 505.04 321.61 504.98 325.62C503.79 326.77 501.77 333.31 502.25 334.92C503.59 335.13 505.56 334.69 506.76 335.32C516.63 340.6 508.05 359.32 502.07 364.47C502.03 365.2 502.12 366.12 501.79 366.79C501.37 367.66 490.61 378.43 489.67 378.95C488.34 379.67 487.04 380.1 485.49 380.11C482.87 382.8 479.19 383.02 476.58 380.15C474.56 380.07 468.8 382.16 467.92 384.03C453.32 384.03 438.72 384.03 424.11 384.03C424.71 382.5 425.31 380.98 425.91 379.45C425.17 379.25 412.14 382.49 411.42 383.1C409.92 383.1 407.71 382.58 407.11 384.03C404.43 384.03 401.74 384.03 399.05 384.03C398.59 383.09 398.12 382.14 397.66 381.2C395.64 381.83 393.61 382.47 391.59 383.1C391.39 383.41 391.19 383.72 390.99 384.03C388.97 384.03 386.96 384.03 384.94 384.03C384.46 382.39 383.98 380.75 383.49 379.1C381.35 381.32 377.41 380.06 376.88 384.03C371.59 384.03 366.31 384.03 361.02 384.03C360.93 383.45 360.84 382.86 360.75 382.28C358.25 381.89 357.35 382.81 355.16 383.36C355.1 383.58 355.04 383.81 354.97 384.03C337.97 384.03 320.97 384.03 303.97 384.03C303.9 382.45 303.83 380.86 303.76 379.28C300.07 378.74 290 380.18 287.41 378.99C285.86 378.27 284.21 375.81 283 374.59C282.9 371.8 282.81 369.02 282.71 366.23C277.63 365.66 266.48 370.14 262.2 367.81C261.21 367.26 258.39 364.56 258.04 363.5C257 360.26 258 349.82 258 345.85C258 341.56 258.84 336.29 257.98 332.09C257.7 330.72 256.1 330.29 256 328.83C255.56 322.8 255.06 306.56 256 301.04C256.26 299.53 257.43 297.91 257.92 296.46C258.56 294.57 258 291.59 258 289.59C259.21 288.33 260.52 284.55 259.93 282.73C259.35 280.94 256.63 280.18 256.04 278.39C254.31 273.2 257.55 263.61 255.6 258.12C254.73 260.11 253.87 262.1 253 264.09C253.4 265.08 254.57 265.63 254.91 266.59C255.41 267.97 255.45 272.35 254.85 273.69C253.86 275.92 252.07 275.77 251.95 278.66C250.08 280.36 249.08 292.97 250.13 295.62C250.93 297.62 254.17 298.56 254.91 300.59C255.65 302.63 255 306.03 255 308.21C255 309.8 254.59 312.53 253.76 313.84C253.36 314.46 252.42 314.83 252.14 315.54C251.45 317.26 251.69 318.95 250.86 320.67C250.5 321.4 249.42 321.78 249.11 322.52C248.33 324.4 248.71 326.76 247.89 328.66C247.02 330.66 245.77 332.59 246.25 334.92C247.59 335.17 249.4 334.69 250.63 335.25C258.38 338.73 254.9 351.62 251.79 356.8C250.45 359.03 247.03 362.32 246.13 364.54C245.81 365.33 246.19 366.18 245.71 366.92C244.18 369.28 241.2 371.39 239.19 373.38C237.55 374.99 235.58 378.01 233.52 379.01C232.17 379.66 230.75 379.66 229.41 380.23C228.55 380.59 228.21 381.81 227.25 382.06C222.97 383.19 221.79 379.95 218.36 380.18C216.26 381.47 214.16 382.75 212.06 384.03C200.05 384.03 188.05 384.03 176.04 384.03C175.98 382.48 175.92 380.93 175.86 379.38C170.21 378.06 157.53 381.81 155.08 374.54C154.25 372.1 155.29 368.88 154.81 366.33C148.32 365.09 141.3 370.36 134.6 368.01C132.98 367.44 131.3 364.84 130.04 363.66C129.81 355.71 130 347.73 130 339.78C130 336.08 130.92 332.3 128.04 329.66C127.96 327.16 128.97 321.86 127.29 320.09C122.68 321.14 117.4 330.85 118.25 334.92C119.56 335.14 121.16 334.76 122.41 335.16C127.77 336.88 127.12 344.42 126.95 348.69C126.16 349.39 124.68 355.01 123.83 356.71C122.95 358.48 121 359.78 120.1 361.53C119.6 362.5 118.57 363.54 118.16 364.52C117.83 365.28 118.21 366.14 117.76 366.85C116.83 368.32 106.94 378.29 105.59 378.99C104.23 379.68 102.97 380.08 101.39 380.16C98.79 383.12 95.11 382.71 92.48 380.1C90.44 380.1 84.86 382.23 84.13 384.03C69.43 384.03 54.74 384.03 40.05 384.03C40.66 382.5 41.28 380.96 41.89 379.42C40.8 379.18 29.07 382.39 27.45 383.03C25.92 383.64 23.81 382.22 23.05 384.03C20.36 384.03 17.67 384.03 14.98 384.03C14.51 383.07 14.03 382.1 13.56 381.13C12.21 381.45 10.86 381.78 9.51 382.1C8.84 382.44 8.16 382.77 7.49 383.11C7.3 383.42 7.11 383.73 6.92 384.03C4.65 384.02 2.37 384.01 0.1 384C0.09 377.4 0.08 370.81 0.07 364.21C3.55 365.21 3.09 370.42 7.49 370.09C14.07 369.6 18.22 360.56 25.54 364.03C26.36 364.42 27.29 364.44 27.8 365.4C28.61 366.93 28.83 368.37 29.34 370.01C30.78 369 31.76 369.5 33.35 369.04C34.82 368.62 36.33 367.45 37.85 367.12C40.98 366.44 44.26 367.01 47.29 366.06C50.05 365.19 53.16 363.02 56.44 364.19C59.04 365.13 59.17 366.91 60.96 368.52C61.17 374.61 57.97 374.63 57.27 378.96C58.68 379.2 58.85 378.26 60.1 378.11C62.06 377.86 64.25 378.52 66.17 378.07C72.29 376.64 74.9 374.37 79.53 370.1C85.97 370.05 95.6 358.44 101.39 365.03C104.02 363.04 111.79 351.28 112.78 348.28C110.53 347.81 107.65 348.78 105.5 347.99C104.82 347.74 104.16 346.74 103.66 346.22C102.96 345.51 101.62 344.66 101.2 343.75C99.53 340.19 103.05 337.39 103.94 334.48C104.64 332.18 104.99 330.17 105 327.64C106.59 325.86 106.99 323.95 107.01 321.57C108.63 319.95 111.81 317.82 112.8 315.78C113.79 313.75 113 309.66 113 307.4C113 300.49 113.64 293.21 112.86 286.36C110.38 286.61 107.91 286.86 105.44 287.11C101.43 291.45 92.27 291.79 89.21 285.8C88.41 284.23 89.27 282.97 88 281.5C87.91 279.07 87.81 276.64 87.72 274.21C86.12 273.97 84.72 273.78 83.58 275.03C82.08 275.08 81.56 275.65 80.32 276.02C75.81 277.33 69.86 276.34 67.81 272.36C67.12 271.03 66.53 269.42 67.07 267.75C67.8 265.46 70.74 263.53 70.63 261.14C69.39 261.17 69.1 261.85 68 262.07C66.04 262.45 63.77 261.58 61.84 262.07C59.95 262.56 57.35 263.39 55.51 264.15C49.15 266.78 41.06 275.48 34.61 268.13C33.73 268.08 24.85 270.72 24.49 271.07C21.65 271.07 15.56 272.23 13.56 270.1C12.21 270.09 10.86 270.08 9.51 270.07C7.95 271.61 6.25 271.39 4.42 272.19C2.69 272.95 1.92 275.42 0.07 276.05C0.07 271.05 0.07 266.06 0.07 261.06C2.35 260.25 6.28 259.53 7 256.81C5.57 255.46 2.07 255.97 0.07 256.16C0.07 255.49 0.07 254.81 0.07 254.14C1.2 253.61 1 252.71 1.01 251.55C1.67 250.33 2.34 249.12 3 247.91C0.32 243.43 1 244.16 1 238.6C1.77 237.76 3.44 236.68 3.88 235.64C5.23 232.41 7.32 219.86 5.88 216.48C5.12 214.68 2.28 212.98 1 211.48C1 208.76 0.09 204.14 1.06 201.63C1.43 200.67 1.76 199.2 2.23 198.31C2.61 197.59 3.69 197.26 3.94 196.44C4.49 194.67 4.24 193.19 5.11 191.48C5.44 190.83 6.36 190.48 6.71 189.85C7.58 188.3 6.57 186.95 7.99 185.57C8.63 182.85 9.27 180.13 9.92 177.4C8.6 176.84 7.26 177.35 5.87 177.02C4.62 176.72 1.75 173.82 1.15 172.65C0.67 171.71 1 170.02 1 168.98C1 160.85 4.31 153.31 10 147.53C10 144.5 12.72 142.87 14.74 140.83C16.95 138.59 19.5 134.88 22.21 133.31C24.51 131.98 26.48 131.97 28.53 130.03C32.65 130.03 32.62 130.11 35.82 132.03C37.77 132.01 43 129.87 44.09 128.27C55.95 128.16 67.81 128.05 79.67 127.95C79.79 128.07 79.91 128.19 80.03 128.3C80.13 129.85 80.24 131.4 80.34 132.94C86.1 133.57 98.43 130.54 100.95 137.65C101.81 140.09 100.67 143.36 101.3 145.91C106.97 146.69 116.14 141.99 121.55 144.16C126.75 146.24 126 152.41 126 156.84C126 162.75 124.86 175.1 126.03 180.26C126.26 181.31 127.64 181.72 127.95 182.76C128.74 185.43 127.8 188.93 128.1 191.72C134.89 193.55 134.57 188.1 136.07 183.61C136.78 181.48 138.25 179.68 137.82 177.28C136.44 176.9 134.72 177.45 133.42 176.89C128.54 174.81 128.9 169.26 129 164.93C129.03 163.69 129.58 163.48 129.91 162.48C130.23 161.52 129.72 160.38 130.13 159.45C131.71 155.87 134.33 152.75 136.19 149.33C136.53 148.71 137.49 148.37 137.81 147.74C138.2 146.97 137.82 146.07 138.23 145.29C139.38 143.13 142.55 140.99 144.29 139.22C146.02 137.45 148.05 134.64 150.16 133.36C151.05 132.83 151.65 132.94 152.39 132.1C154.42 131.99 155.08 131.53 156.43 130.07C157.86 130.03 160.19 129.59 161.53 130.13C162.83 130.66 162.94 131.82 164.53 132.03C167.04 130.81 169.56 129.6 172.08 128.38C172.21 128.23 172.35 128.09 172.49 127.94C186.88 127.94 201.27 127.95 215.66 127.95C215.78 128.07 215.9 128.18 216.02 128.3C215.49 129.86 214.97 131.41 214.44 132.96C220.66 131.39 226.88 129.83 233.1 128.26C235.69 128.28 238.29 128.29 240.89 128.3C241.39 129.18 241.89 130.06 242.39 130.93C244.59 130.09 246.8 129.24 249.01 128.4C250.94 128.37 252.86 128.34 254.79 128.31C255.23 128.1 255.68 127.9 256.12 127.7C256.24 127.1 256.35 126.51 256.47 125.92C257.31 123.95 258.16 121.98 259 120.01C258.6 119.02 257.43 118.47 257.09 117.52C256.59 116.13 256.55 111.75 257.15 110.41C258.14 108.18 259.93 108.33 260.05 105.45C261.92 103.74 262.92 91.14 261.87 88.48C261.07 86.48 257.83 85.54 257.09 83.51C256.35 81.47 257 78.07 257 75.89C257 74.3 257.41 71.57 258.24 70.27C258.64 69.64 259.58 69.27 259.86 68.56C260.55 66.84 260.31 65.15 261.14 63.43C261.5 62.7 262.58 62.32 262.89 61.58C263.67 59.7 263.29 57.34 264.11 55.45C264.98 53.44 266.23 51.51 265.75 49.18C264.41 48.93 262.6 49.41 261.37 48.85C253.62 45.37 257.1 32.48 260.21 27.3C261.55 25.08 264.97 21.78 265.87 19.56C266.19 18.77 265.81 17.93 266.29 17.19C267.82 14.82 270.8 12.71 272.81 10.73C274.45 9.11 276.42 6.09 278.48 5.09C279.83 4.44 281.25 4.44 282.59 3.88C283.45 3.51 283.79 2.29 284.75 2.04C289.03 0.91 290.21 4.15 293.64 3.92C295.74 2.64 297.84 1.35 299.94 0.07ZM326.83 5.24C325.32 4.81 324.75 5.97 323.19 6C315.06 6.17 310.17 7.95 304.57 13.97C298.52 14.15 290.5 23.33 284.44 20.89C283.69 20.59 283.02 19.54 282.31 19.12C278.91 23.24 272.99 31.08 271.22 35.82C273.45 36.25 276.49 35.28 278.57 36.14C279.46 36.51 280.33 37.88 281.02 38.55C284.87 42.26 281.99 45.53 280.21 49.3C279.61 50.57 280.2 51.38 279.05 52.41C278.93 55.61 278.16 56.83 277.08 59.52C276.33 61.4 276.7 63.73 275.86 65.63C274.84 67.91 272.35 70.56 272.01 73.06C271.62 75.96 275.66 76.6 276 79.13C276.38 82.05 276.81 87.6 275.94 90.41C275.72 91.12 275.09 91.29 275 92.1C274.54 96.28 275.84 100.92 274.99 105.03C274.62 106.78 273.72 107.78 274.01 109.89C274.26 111.79 276.77 112.37 277 114.34C277.54 118.98 274.85 121.21 272.75 124.77C272.37 125.42 271.41 125.79 271.13 126.51C270.49 128.15 271.01 130.8 270.98 132.55C268.61 134.89 270.86 137.28 271.89 139.51C273.81 143.68 280.67 151.53 274.87 155.68C273.43 156.71 271.75 156.77 270.17 157.36C272.11 161.8 272.82 167.09 273.97 171.83C274.25 172.98 273.72 174.29 274.07 175.43C274.94 178.29 276.87 180.93 275.95 184.34C273.8 192.38 265.72 188.16 261.49 185.17C260.72 186.52 261.5 186.41 261.91 187.62C262.63 189.7 261.45 192.28 262.03 194.39C262.62 196.48 264.01 198.17 264 200.55C266.33 204.88 268.67 209.21 271 213.54C271 214.88 271 216.21 271 217.55C270 218.9 269 220.25 268 221.6C268.01 223.81 269.16 224.64 269.89 226.53C270.36 227.74 269.68 229.21 270.06 230.45C270.23 231.02 270.84 231.22 270.98 231.82C271.54 234.08 271.55 239.06 270.98 241.32C270.8 242.05 270.14 242.26 270.01 243.05C269.61 245.64 271 247.15 271 249.52C268.98 251.73 270.44 255.24 269.99 258.02C269.49 261.05 267.98 264.03 267.27 266.93C268.6 267.14 270.45 266.67 271.67 267.25C275.88 269.25 277.17 275.3 275.94 279.43C275.61 280.57 274.39 281.58 274.06 282.74C273.73 283.88 274.26 285.19 273.96 286.34C273.57 287.83 272.42 289.34 272.04 290.83C271.17 294.24 271.74 297.73 270.99 301.23C270.56 303.23 269.02 304.28 268.99 306.59C267.71 307.86 266.48 316.28 267.04 318.32C267.56 320.2 270.56 320.99 270.99 322.88C271.42 324.8 271.01 327.29 271.01 329.26C271 336.67 269.71 346.9 271.27 353.95C272.07 354.07 277.85 353.26 278.6 352.93C280.1 352.27 281.05 350.59 282.73 350.13C284.04 349.78 285.81 350.09 287.17 350.09C296.2 350.09 295.57 359.09 296.07 365.72C297.03 366.12 298.67 366.47 299.67 365.9C304.55 363.13 313.33 362.46 316.31 367.92C317.01 369.2 317.51 371.31 316.77 372.83C315.76 374.91 314.11 376.66 313.07 378.73C314.05 379.16 325.18 377.49 326.43 376.14C333.24 375.9 337.78 367.78 345.04 369.11C346.97 369.46 348.23 371.23 349.9 372.1C351.9 372.05 352.86 370.8 354.56 370.16C355.74 369.73 357.19 370.42 358.38 370.02C359.06 369.79 359.25 369.24 360.02 369.11C363.6 368.51 373.04 370.55 374.55 369.96C375.46 369.59 379.11 368.17 379.74 367.85C381.58 366.9 382.18 364.63 384.3 364.1C386.28 365.64 387.46 369.57 389.97 370.08C396.55 371.43 402.33 360.05 409.35 363.93C410.19 364.39 411.06 364.32 411.67 365.24C412.67 366.73 412.64 368.56 413.45 370.07C413.85 369.7 421.07 367.27 421.95 367.11C423.36 366.85 424.98 367.44 426.36 367.03C426.9 366.88 427.1 366.36 427.63 366.17C428.79 365.77 430.23 366.46 431.38 366.04C432.89 365.49 434.51 364.38 436.11 364.1C438.37 363.7 442.8 364.19 443.9 366.58C445.21 369.43 445.35 371.99 443.8 374.81C443.02 376.25 441.03 377.26 441.44 379.04C445.46 378.39 449.49 377.74 453.51 377.1C454.92 375.67 457.11 375.91 458.79 374.82C460.52 373.71 461.51 371.42 463.25 370.34C464.4 369.62 466.27 369.6 467.57 368.98C472.55 366.59 480.37 359.74 485.49 365.09C488.74 361.81 495.25 352.45 496.82 348.36C494.56 347.64 491.4 348.94 489.3 347.9C488.43 347.46 487.6 346.15 486.9 345.47C482.66 341.36 486.79 338.55 487.96 334.44C488.59 332.25 488.39 329.89 489.05 327.7C489.36 326.69 490.42 325.69 490.84 324.71C491.62 322.92 491.46 320.61 492.07 318.75C492.92 316.13 495.51 313.79 495.99 311.05C496.45 308.42 493.08 307.7 492.18 305.71C491.53 304.29 491.65 295.76 492.01 294.05C492.17 293.32 492.75 293.07 492.94 292.41C494.12 288.31 492.34 283.29 493.01 279.07C493.29 277.33 494.75 275.83 493.94 273.67C493.53 272.57 491.83 271.39 491 270.57C491.01 267.74 490.9 265.46 492.43 263.13C493.02 262.23 494.34 261.68 494.84 260.72C495.52 259.41 495.82 258.69 496.98 257.62C497.01 255.9 498.06 248.03 497.87 247.54C495.22 240.72 483.83 229.69 497.78 226.86C495.96 222.22 495.4 217.08 494.04 212.28C493.73 211.17 494.27 209.87 493.98 208.76C493.57 207.16 492.22 205.5 492 203.79C491.52 200.08 492.94 195.98 496.83 195.08C501.09 194.1 503.32 197.66 506.7 198.93C507.24 197.43 506.22 197.42 506.01 196.09C505.45 192.61 506.74 188.21 504.01 185.57C503.96 179.89 498.2 175.57 497.02 170.19C496.1 165.97 499.94 164.42 500 160.89C497.34 156.41 496.14 148.56 497.01 143.08C497.17 142.09 497.9 141.7 498 140.65C498.33 137.25 495.68 135.41 496 132.17C496.13 130.86 497.59 130.49 497.95 129.3C498.28 128.19 497.74 126.89 498.02 125.77C498.74 122.9 499.7 120.09 500.87 117.36C499.48 116.81 497.86 117.45 496.48 116.92C495.44 116.52 492.64 113.67 492.18 112.65C491.5 111.14 491.54 106.22 492.08 104.64C492.47 103.5 493.7 102.43 493.99 101.27C494.26 100.16 493.72 98.86 494.06 97.76C494.91 94.94 496.29 92.08 496.97 89.23C497.46 87.18 496.51 84.82 497.04 82.79C497.35 81.6 498.56 80.59 498.94 79.46C500.37 75.12 501.25 70.14 500.91 65.37C499.87 64.48 497.69 62.88 497.14 61.62C496.19 59.42 497 55.23 497 52.82C497 45.53 497.95 37.44 496.82 30.26C495.44 29.85 494.56 29.9 493.57 30.96C487.75 31.18 489.59 32.54 485.44 33.93C479.78 35.83 472.96 32.64 473.01 26.51C471.01 24.5 472.32 20.68 471.73 18.03C470.65 18.03 469.57 18.03 468.49 18.03C465.64 20.78 456.69 20.66 453.3 18.82C452.01 18.12 452.06 16.51 451.04 15.58C450.84 9.5 454.03 9.46 454.73 5.14C453.32 4.91 453.15 5.84 451.9 5.99C447.13 6.57 443.86 6.32 439.42 8.15C434.85 10.02 431.09 13.49 426.37 14.93C422.3 16.18 420.74 12.5 417.49 12C416.14 12.67 414.79 13.34 413.45 14C411.27 14.01 410.04 14.54 408.17 14.98C405.7 15.55 402.23 15.11 399.68 15.01C397.62 14.93 396 13.29 393.63 14.08C389.85 15.33 387.48 17.54 384.3 20C381.04 19.18 381.08 14.51 377.83 14.01C371.27 13.01 365.98 23.79 358.54 20.1C357.53 19.6 356.63 19.61 356.08 18.4C355.42 16.95 355.14 15.77 354.76 14.17C353 14.78 351.25 15.39 349.5 16C345.18 16.67 340.86 17.34 336.54 18C332.85 21.36 324.27 20.87 323.02 15.16C322.07 10.81 325.83 8.78 326.83 5.24ZM23.06 256.41C23.13 256.92 23.2 257.42 23.27 257.92C24.37 257.95 25.48 257.99 26.58 258.02C27.33 257.62 28.09 257.21 28.84 256.81C28.92 256.63 29 256.45 29.08 256.28C34.09 256.2 39.1 256.13 44.12 256.05C56.11 256.15 68.11 256.24 80.1 256.34C80.14 257.85 80.17 259.35 80.2 260.86C86.43 262.21 97.67 257.83 100.92 265.58C101.83 267.75 100.85 271.44 101.16 273.81C104.61 273.56 108.06 273.31 111.51 273.07C113.5 271.06 118.89 271.98 121.63 272.14C122.76 273.45 125.37 275.04 125.92 276.66C126.81 279.3 126 283.56 126 286.36C126 293.77 125.91 301.2 126.02 308.62C126.58 309.06 127.14 309.51 127.7 309.96C127.81 306.81 127.92 303.67 128.03 300.52C131.03 297.7 128.95 293.2 130.05 289.67C130.71 287.58 132.7 285.24 131.94 282.73C131.52 281.36 129.12 279.63 128.05 278.67C128.07 271.13 128.08 263.6 128.1 256.06C132.72 256.1 137.33 256.14 141.95 256.17C141.96 256.32 141.98 256.46 141.99 256.61C142.01 258.78 140.5 264.89 139.03 266.55C140.47 267.44 142.24 266.52 143.73 267.29C147.88 269.43 149.14 275.16 147.97 279.39C147.65 280.53 146.42 281.58 146.06 282.73C145.47 284.63 146.56 286.02 145 287.57C144.65 289.59 144.31 291.62 143.96 293.64C141.22 296.17 144.07 301.52 141 304.57C141.01 309.15 138 313.35 139.01 318.24C139.39 320.04 142.1 320.84 142.83 322.46C143.69 324.38 143 327.96 143 330.07C143 335.37 141.91 349.72 143.27 353.95C144.08 354.06 149.96 353.23 150.68 352.89C152.05 352.24 152.99 350.76 154.48 350.2C158.85 348.56 164.39 350.47 166.77 354.36C167.06 354.82 167.74 358.04 167.96 358.82C168.56 360.99 167.79 363.62 168.17 365.86C171.18 366.73 173.18 364.78 175.86 364.13C181.28 362.81 191.42 364.8 188.93 372.51C188.19 374.84 185.82 376.53 185.17 378.86C186.68 379.3 187.26 378.13 188.81 378.1C196.96 377.92 201.81 376.15 207.43 370.14C213.46 369.94 221.53 360.76 227.56 363.21C228.31 363.52 228.98 364.56 229.69 364.97C233.08 360.9 239.03 352.98 240.78 348.28C238.53 347.85 235.95 348.63 233.76 348.05C232.7 347.78 231.75 346.3 230.98 345.56C226.22 341 231.85 337.39 232.05 332.5C233.65 331.07 232.47 329.48 233.09 327.66C233.47 326.57 234.49 325.62 234.92 324.57C235.68 322.7 235.3 320.36 236.14 318.47C237.16 316.18 239.96 313.24 240 310.64C240.04 308.22 236.95 307.63 236.12 305.67C235.02 303.06 235.79 297.29 236 294.45C236.08 293.41 236.77 293.21 236.99 292.32C238 288.13 236.13 283.29 237.01 279.07C237.38 277.33 238.28 276.32 237.99 274.21C237.58 271.15 234.51 272.12 235 266.52C235.34 262.68 239.98 260.39 241 256.81C239.1 255.13 235.55 256.56 233.1 255.84C233.03 255.35 232.95 254.87 232.88 254.38C231.68 254.32 230.49 254.26 229.29 254.2C228.64 254.53 227.99 254.86 227.33 255.19C227.21 255.34 227.1 255.5 226.98 255.65C221.61 255.82 216.24 256 210.87 256.17C199.28 256.05 187.7 255.94 176.11 255.83C176.03 254.33 175.94 252.84 175.86 251.35C170.11 249.41 158.16 254.34 155.12 246.61C154.19 244.27 155.24 240.8 154.81 238.3C153.07 237.81 150.84 237.67 149.55 239.04C145.71 239.12 137.71 241.53 134.31 239.87C133.32 239.39 130.53 236.64 130.11 235.63C129.35 233.79 130 230.46 130 228.48C130 222.95 130 217.41 130 211.88C130 209.24 131.2 203.36 128.32 202.17C126.76 206.28 129.51 212.15 126.02 215.53C125.99 217.56 126.55 220.46 125.94 222.39C125.54 223.65 125.01 224.12 124.95 225.64C121.16 229.1 127.12 231.04 127.95 233.76C129.15 237.72 127.87 251.03 128 256C123.35 255.98 118.69 255.97 114.03 255.95C114.02 255.32 114.95 248.87 115.13 248.46C115.62 247.36 116.56 246.43 116.77 245.25C115.41 244.95 113.65 245.46 112.38 244.88C107.36 242.63 105.91 233.16 109.92 229.69C110.08 227.08 110.04 223.46 111.98 221.6C112.01 219.71 112.66 218.74 112.98 217.14C113.39 215.1 112.48 212.74 113.05 210.73C113.36 209.59 114.59 208.56 114.94 207.41C115.33 206.12 114.92 205.6 115.97 204.6C116.14 197.14 119.56 195.61 113.03 189.62C112.93 179.14 112.83 168.66 112.72 158.18C111 157.89 110.81 158.52 109.43 158.98C108.2 159.38 106.72 158.69 105.5 159.14C104.72 159.43 104.36 160.51 103.64 160.89C101.28 162.11 96.03 163.07 93.37 161.87C92.36 161.41 89.52 158.61 89.11 157.58C88.49 155.99 89.4 154.9 88.03 153.58C87.97 151.16 87.92 148.74 87.86 146.31C84.78 145.51 82.94 147.31 80.29 148C77.73 148.67 74.08 148.08 71.44 148C70.5 146.99 68.88 147.02 68.19 145.74C65.63 140.99 68.26 137.29 70.89 133.36C69.97 133.12 61.31 134.22 60.51 135.03C53.12 135.1 52.73 140.03 48.63 141.89C47.94 142.2 47.13 141.89 46.43 142.17C43.72 143.26 40.99 144.91 38.35 146.21C34.37 148.18 30.45 151.03 26.51 147.05C21.71 151.74 18.47 158.1 15.1 163.72C17.56 163.83 20.01 163.94 22.46 164.04C23.98 165.55 25.49 167.06 27 168.58C26.99 169.92 26.97 171.27 26.96 172.62C25.98 174.24 25 175.86 24.03 177.48C24.02 178.02 23.01 184.33 22.88 184.62C22.45 185.63 21.43 186.56 21.08 187.63C20.8 188.51 21.2 189.51 20.95 190.39C19.93 193.95 17.8 197.62 16 200.95C16.06 203.96 19.05 204.18 19.92 206.64C20.42 208.08 20.4 216.85 19.94 218.35C19.74 219.03 19.15 219.25 19.01 219.98C18.59 222.23 19 224.97 19 227.26C19 229.58 19.72 232.84 18 234.55C18.01 238 18.3 239.16 20.92 241.43C20.92 243.18 20.93 244.94 20.93 246.69C18.96 249.66 16.99 252.63 15.01 255.6C17.7 255.87 20.38 256.14 23.06 256.41ZM256.26 233.1C256.74 233.04 257.23 232.99 257.71 232.93C257.74 231.72 257.78 230.5 257.81 229.29C257.48 228.62 257.14 227.96 256.81 227.29C256.66 227.22 256.52 227.14 256.37 227.07C256.21 221.65 256.04 216.23 255.88 210.81C255.88 198.31 255.88 185.81 255.88 173.31C256.02 171.54 256.17 169.76 256.31 167.98C257.82 168.59 259.33 169.19 260.83 169.79C259.89 166.69 258.94 163.58 258 160.48C258 158.97 257.14 151.58 256.26 151C256.02 150.25 256.24 149.3 255.94 148.62C255.57 147.78 251.02 142.29 250.31 142.09C246.45 140.98 239.16 147.27 235.66 148.85C233.61 149.78 229.09 148.68 228.08 146.54C227.4 145.09 227.17 143.85 226.81 142.27C222.38 143.44 218.41 145.05 213.5 145.03C212.51 146.03 207.02 147.02 205.41 147.09C202.36 150.5 196.2 146.81 195.08 143.46C193.57 138.91 198.62 136.7 198.53 133.04C197.47 133.19 197.05 133.82 196.09 134.02C194.15 134.42 192 133.77 190.03 134.04C188.82 134.22 184.52 135.64 183.33 136.2C180.69 137.46 179.3 140.31 176.8 141.76C175.58 142.47 173.8 142.47 172.47 143.13C168.62 145.02 161 150.65 156.48 148.92C155.75 148.64 155.04 147.58 154.41 147.09C149.79 152.25 146.96 158.14 143.1 163.72C145.41 164.35 147.99 163.47 150.29 164.08C151.28 164.34 152.27 165.84 153 166.55C158.21 171.61 152.02 174.39 152 179.5C150.54 181.11 151.5 182.43 150.95 184.34C150.62 185.5 149.4 186.52 149.05 187.66C148.6 189.15 149.41 190.94 148.93 192.43C148.25 194.58 144.71 195.56 144.06 197.73C142.04 204.42 142.46 218.23 143.08 225.69C143.83 226.02 149.77 225.29 150.64 224.89C152.15 224.21 153.08 222.54 154.82 222.09C162.41 220.15 166.54 224.39 167.98 230.91C168.47 233.12 167.74 235.58 168.17 237.82C170.38 238.26 173.88 237.72 175.46 236.09C180.71 235.96 185.43 235.11 188.21 239.76C188.97 241.04 189.51 242.97 188.9 244.58C188.06 246.82 185.66 248.52 185.17 250.83C186.66 251.04 186.99 250.18 188.41 250.06C190.26 249.91 192.63 250.56 194.41 250.01C201.12 247.91 206.97 243.55 213.53 241.17C217.83 239.61 219.14 243.62 222 244.05C223.88 244.33 224.97 242.69 226.53 242.14C227.75 241.71 229.23 242.4 230.45 241.98C231.13 241.75 231.33 241.21 232.12 241.07C234.52 240.66 238.64 240.58 241.02 241.08C242.8 241.45 244.11 242.6 246.27 242.02C247.44 241.7 248.46 240.48 249.59 240.12C253.84 238.77 254.88 237.28 256.26 233.1ZM256.06 135.09C256.06 137.72 256.06 140.35 256.06 142.98C257.04 142.47 258.02 141.97 259 141.46C258.02 139.33 257.04 137.21 256.06 135.09ZM256.4 249.12C254.29 253.59 249.28 251.52 249.01 256.03C252.96 256.03 256.91 256.03 260.86 256.03C260.33 253.87 259.3 249.16 256.4 249.12Z" fill="#000100" fill-rule="evenodd" stroke="#000100" stroke-width="0.25" stroke-linejoin="round"/>
<path d="M0.07 44.96C0.07 39.67 0.07 34.38 0.07 29.09C0.92 29.04 1.78 28.99 2.63 28.94C5.6 27.3 8.57 25.65 11.54 24.01C14.71 24 16.83 21.91 19.65 21.05C22.56 20.17 31.35 20.73 33.76 22.27C34.8 22.93 34.82 24.08 35.42 24.99C37.05 24.92 38.04 23.67 39.52 23.11C41.61 22.33 43.7 21.93 45.72 20.81C46.76 20.24 47.36 18.83 48.38 18.18C49.94 17.17 52.04 16.8 53.66 15.84C55 15.04 55.97 13.75 57.4 13.13C60.8 11.66 65 14.57 65.92 17.63C66.61 19.92 64.81 24.35 65.12 27.72C72.1 29.54 79.11 20.05 86.41 20C88.94 19.99 93.38 19.65 94.84 22.31C95.99 24.43 96.69 26.61 97.34 28.92C98.9 29.08 100.23 28.7 101.39 29.92C103.33 28.45 105.8 29.8 107.46 28.03C109.48 27.69 111.51 27.34 113.53 27C116.2 24.19 125.3 26.71 128.01 28.53C128 31.56 128.85 43.33 127.29 45C125.86 44.67 124.83 43.58 123.52 43.09C121.9 42.49 120.12 42.53 118.5 41.92C117.37 41.49 116.36 40.3 115.14 40.03C113.01 39.56 108.39 41.03 105.44 41.03C103.84 42.76 98.13 42.71 96.53 41.02C91.7 41.04 87.68 37.3 85.6 33.07C83.77 34.57 81.34 35.13 79.28 36.19C71.8 40.06 65.65 43.02 57.35 38.81C54.57 37.4 54.06 33.26 52.41 31.07C50.67 32.91 47.83 33.35 45.58 34.06C43.52 34.72 41.45 36.09 39.44 36.89C35.84 38.34 25.05 37.56 23.68 33.13C21.65 33.75 19.63 34.38 17.61 35C14.21 37.84 10.32 39.19 6.47 41.1C4.32 42.16 2.66 45.11 0.07 44.96ZM321.16 27.76C323.79 28.29 325.15 27.05 327.64 26.93C329.69 24.42 337.62 20.88 340.71 20.04C342.66 19.5 345.45 19.97 347.47 20.01C348.27 20.77 348.83 20.72 349.73 21.22C351.69 22.29 352.87 26.75 353.14 28.72C354.62 29.13 356.11 29.54 357.59 29.95C358.86 28.59 360.71 28.99 362.45 29.03C363.87 27.73 364.79 28.46 366.46 27.92C369.61 26.89 376.4 23.75 379.45 26.99C381.79 26.99 384.31 29.79 386.52 28.91C389.62 27.68 392.38 25.41 395.44 24.11C396.12 23.82 396.91 24.14 397.6 23.86C399.54 23.06 401.72 21.62 403.75 21.05C407.37 20.03 414.49 20.51 417.64 22.14C418.8 22.74 418.85 24.14 419.52 25.03C420.97 24.85 422.02 23.82 423.29 23.21C425.24 22.28 427.52 21.88 429.54 20.92C430.6 20.41 431.18 18.91 432.19 18.31C433.87 17.33 435.76 16.78 437.48 15.94C439 15.19 440.08 13.47 441.8 13.04C446.53 11.84 453.31 18.17 449.02 22.46C449.02 24.22 449.02 25.97 449.02 27.72C451.68 28.31 453.03 27.01 455.54 27.01C455.91 26.61 459.96 23.32 460.46 23.13C461.75 22.62 462.47 23.01 463.63 22.07C464.64 23.23 469.7 24.44 470.91 27.49C472.05 30.39 470.68 34.75 471.23 37.84C472.07 38.23 472.91 38.62 473.75 39.01C474.99 38.65 475.36 37.6 476.47 37.11C480.75 35.21 483.36 39.03 486.01 41.49C486.01 49.65 486.01 57.82 486.01 65.99C487.86 65.99 489.71 65.99 491.56 65.99C492.72 67.38 495.34 68.94 495.92 70.64C498.14 77.15 492.13 81.37 491.02 86.83C490.36 90.08 490.77 94.11 489.97 97.25C489.79 97.97 489.13 98.19 489 98.97C488.53 101.87 489.41 104.96 489 107.86C488.87 108.75 488.21 109.06 488.03 109.89C487.76 111.06 488.03 112.47 487.92 113.67C487.12 114.01 486.32 113.84 485.52 114.13C484.82 114.38 484.17 115.41 483.65 115.94C480.08 119.59 481.04 121.46 481 126.48C482.3 127.95 482.99 128.43 482.99 130.53C484.64 133.5 486.29 136.47 487.94 139.43C488.12 142.62 489.88 144.76 490.9 147.58C491.9 150.36 491.17 159.33 489.8 161.75C489.13 162.93 487.79 162.87 487.01 163.72C487.2 165.15 488.31 166.14 488.85 167.45C489.7 169.52 490.06 171.63 491.13 173.69C491.67 174.72 493.13 175.33 493.76 176.32C494.79 177.93 495.23 179.96 496.11 181.64C497.95 185.17 499.22 184.87 498.95 189.62C497.13 191.22 497.02 193.05 494.38 193.97C491.43 195 487.85 192.46 484.2 193.26C483.73 196.19 484.9 199.15 486.16 201.68C486.53 202.42 487.56 202.79 487.91 203.55C490.64 209.38 492.16 212.73 491.98 219.57C491.15 220.33 491.26 220.9 490.75 221.81C489.65 223.81 485.25 224.9 483.23 225.24C482.85 226.72 482.47 228.21 482.08 229.69C483.44 230.93 483 232.83 482.99 234.55C484.55 236.15 486.73 246.88 485.95 249.44C485.68 250.35 484.41 250.72 484.09 251.59C482.43 256.21 485.76 256.08 481.04 260.51C480.94 263.27 479.38 266.87 480.04 269.34C480.52 271.11 483.23 271.87 483.9 273.53C484.73 275.59 484.37 280.9 483.98 283.1C483.85 283.87 483.18 284.09 483.01 284.8C482.67 286.2 483.29 287.78 482.97 289.19C482.8 289.88 482.21 290.15 482.03 290.82C480.99 294.9 482.12 299.31 480.94 303.34C480.06 306.33 477.69 312.92 478.2 315.89C480.51 316.42 483.69 317.92 484.81 320.44C486.78 324.85 484.11 337.29 480.99 340.59C481.09 348.38 479.03 346.53 476.23 351.34C473.88 355.38 471.6 362.49 466.71 364.9C465.09 365.71 462.33 366.36 460.47 367.19C456.49 368.99 454.32 372.61 449.62 370.2C448.75 369.75 447.89 369.84 447.26 368.89C444.63 364.93 447.37 360.83 446.85 356.38C439.81 354.61 432.88 364.07 425.59 364.12C423 364.14 418.35 364.45 417.06 361.54C416.1 359.36 415.29 357.49 414.66 355.18C413.11 355.05 411.75 355.42 410.61 354.19C408.67 355.6 406.14 354.31 404.54 356.07C402.52 356.41 400.49 356.75 398.47 357.09C394.24 361.42 385.76 355.12 381.47 355.11C378.5 356.76 375.53 358.41 372.57 360.06C370.81 360.44 369.06 360.81 367.3 361.19C364.44 364.74 354.15 363.69 350.53 362.01C349.21 361.4 349.17 359.88 348.28 359.08C346.87 359.35 345.86 360.44 344.56 360.97C342.49 361.8 340.39 362.12 338.35 363.26C337.31 363.84 336.76 365.34 335.66 365.89C331.31 368.05 327.41 371.4 322.38 371.02C320.83 369.22 318.97 369.09 318.07 366.48C317.01 363.37 319.73 360.01 318.74 356.23C315.84 355.94 312.81 356.93 310.34 358.28C309.31 358.84 308.75 360.4 307.69 360.92C306.44 361.54 305.63 360.93 304.57 362.05C302.68 360.49 298.65 359.93 297.17 356.69C295.94 354.01 297.2 349.35 296.88 346.41C295.93 345.96 294.99 345.52 294.05 345.08C293.04 345.53 292.2 346.87 291.13 347.09C287.92 347.74 283.35 345.96 282.1 342.58C280.51 338.27 282.93 324.08 281.82 318.33C280.21 318 277.91 318.6 276.41 317.92C272.5 316.16 270.73 310.53 272.08 306.65C272.84 304.48 274.88 302.82 275.84 300.76C276.88 298.51 276.34 296.08 277.03 293.75C277.2 293.17 277.8 292.99 277.95 292.4C278.86 288.87 277.92 276.57 279.99 274.62C279.97 269.79 282.27 265.49 286.98 263.69C286.98 261.67 286.98 259.64 286.98 257.62C284.96 255.42 281.34 247.66 280.12 244.61C279.05 241.95 279.2 238.78 277.02 236.57C276.89 231.99 276.03 226.15 278.32 222.24C278.94 221.18 280.2 221.08 281 220.38C280.5 218.11 277.97 212.59 276.79 210.36C276.23 209.31 274.71 208.77 274.17 207.7C273.26 205.93 272.76 204.09 271.79 202.35C271.02 200.96 269.66 200.06 269.1 198.5C267.82 194.95 270.45 191.42 273.45 190.21C276.16 189.12 280.13 191.56 283.8 190.84C285.76 182.01 267.35 168.79 279.89 160.69C281.5 159.65 282.83 159.24 284.76 158.86C285.15 157.38 285.53 155.89 285.91 154.41C284.84 153.4 283.99 147.21 283.98 145.51C281.15 142.68 281.11 135.38 284.01 132.55C283.86 128.52 283.82 126.32 286.95 123.65C287.1 119.86 287.93 119.16 289 115.96C288.01 113.83 284.69 112.51 284.04 110.28C282.79 105.99 284.6 97.31 285.94 93.53C286.78 91.13 285.92 88.28 286.91 85.55C287.69 83.39 286.17 81.33 288.01 79.53C288.59 75.75 289.18 71.98 289.77 68.2C283.49 67.1 282.95 62.83 282.99 57.27C283 55.31 282.45 53.03 283.95 51.6C284.03 48.03 285.94 46.55 286.92 43.47C287.63 41.24 287.19 38.82 288.06 36.64C288.75 34.94 291.05 34.17 291.86 32.55C293.68 28.91 297 21 301.43 19.14C302.73 18.59 304.06 18.52 305.36 17.92C309.93 15.83 313.31 11.53 318.56 13.93C319.38 14.31 320.3 14.37 320.8 15.32C323.15 19.76 320.23 23.04 321.16 27.76ZM308.62 31.08C305.74 35.22 302.86 39.37 299.99 43.51C300.03 45.98 300.01 48.69 298.06 50.39C297.72 51.47 297.39 52.55 297.06 53.63C299.04 55.92 301.02 58.22 303 60.51C303.04 64.73 303.88 70.08 302.97 74.19C302.23 77.53 301.13 79.8 300.96 83.58C299.87 84.59 298.39 95.16 299.24 96.8C300.21 98.67 303.4 99.69 303.95 101.81C305.29 106.95 303.15 112.57 302.95 117.58C301.97 119.87 301 122.16 300.02 124.46C300.01 126.46 300.28 127.27 300.99 128.91C300.44 130.98 299.01 132.21 298.96 134.58C297.82 135.64 298.38 136.41 297.78 137.7C297.35 138.63 296.49 139.52 296.1 140.45C295.27 142.44 297.56 149.86 297.99 151.98C299.05 157.27 296.93 163.58 293.32 167.23C291.96 168.6 291.04 169.74 289.19 170.29C291.15 176.3 295.95 180.87 296.02 187.6C297.25 188.77 297.02 190 297 191.65C296.95 197.93 292.53 201.44 287.1 203.38C288.58 205.89 291.99 212.8 292 215.53C294.14 217.87 293.21 228.09 291.73 230.79C291.14 231.88 289.91 231.94 289.02 232.52C289.68 234.55 290.34 236.57 291 238.6C293.7 241.08 294.52 244.56 296.12 247.66C299.57 254.35 301.36 252.7 300.95 261.67C300.39 262.14 297.45 268.38 296.88 269.6C295.94 271.57 293.75 272.47 293.07 274.65C292.65 276.02 293.22 277.66 292.99 279.06C292.86 279.85 292.19 280.08 292.02 280.8C291.3 283.7 292.55 287.06 291.99 290C291.84 290.76 291.27 290.99 291.07 291.66C290.57 293.25 291.22 295.23 291 296.88C290.72 298.93 289.99 299.79 289.98 302.55C298.45 311.57 292.71 321.37 295.26 331.94C296.22 332.13 297.38 331.84 298.3 332.11C303.71 333.75 309.04 339.55 310.24 344.94C312.02 344.01 313.62 344.62 315.46 344C322.91 341.5 329.08 345.63 331.28 352.96C337.74 349.25 355.72 341.97 360.42 351.06C362.45 350.41 364.47 349.75 366.49 349.1C369.5 345.99 373.88 344.89 377.6 342.98C380.02 341.74 381.59 338.71 384.71 339.08C387.63 339.42 390.17 341.97 393.61 342.14C396.63 345.68 402.45 343.09 406.56 343.07C408.2 341.34 413.82 341.41 415.47 343.08C419.98 343.1 424.73 346.73 426.4 351.04C430.44 347.71 445.11 341.59 450.26 343.14C451.66 343.56 453.32 344.63 454.65 345.28C457.45 346.66 457.94 350.89 459.59 353.05C460.19 352.39 467.75 341.08 467.92 340.57C468.3 339.43 467.98 337.75 468.04 336.54C468.99 334.52 469.94 332.5 470.9 330.47C469.51 329.17 467.05 327.41 466.15 325.75C462.92 319.77 465.2 310.25 466.96 304.51C467.75 301.9 467.11 295.38 468.98 293.64C468.98 291.62 468.98 289.59 468.98 287.57C462.85 281.32 463.76 281.68 464.03 272.59C465.66 270.88 464.52 269.05 465.02 266.94C465.37 265.42 466.56 263.9 466.96 262.42C467.56 260.17 466.6 257.49 466.99 255.19C467.13 254.39 467.62 254.23 467.92 253.55C468.92 251.29 469.11 248.72 470.12 246.48C470.63 245.36 471.77 244.32 471.98 243.05C472.38 240.58 470.75 234.75 470.04 232.45C469.27 229.99 470.02 226.69 470.9 224.63C471.29 223.71 470.77 222.57 471.1 221.62C472.34 218.12 476.09 215.46 478.95 213.5C477.04 211.66 476.02 208.02 474.94 205.63C474.15 203.91 472.66 202.25 472.05 200.48C471.67 199.36 472.22 198.05 471.98 196.91C471.83 196.21 471.24 195.95 471.05 195.28C469.02 188.19 475.06 182.57 480.89 180.72C476.64 174.2 470.34 156.57 478.97 151.58C477.41 149.87 477.82 147.38 476.87 145.43C476.54 144.76 475.59 144.42 475.24 143.78C473.57 140.77 472.47 137.45 470.87 134.41C469.97 132.69 467.6 131.18 467.04 129.3C465.19 122.98 471.05 113.84 475.03 109.48C474.89 106.18 475.62 105.51 475.99 103.01C476.44 100.06 475.23 96.6 476.05 93.72C476.2 93.22 476.67 92.87 477.01 92.48C476.88 88.93 478.41 84.39 477.98 81.97C477.72 80.49 475.79 79.94 475.18 78.65C474.15 76.44 473.88 73.69 473.09 71.42C471.81 67.78 473.15 56.93 472.94 52.41C471.89 52.08 470.57 52.36 469.58 51.96C466.28 50.63 461.06 47.16 459.19 43.72C458.37 42.23 458.32 40.49 457.56 39.06C455.83 40.24 454.67 39.54 452.72 40.07C452.06 40.25 451.79 40.83 451.09 40.99C447.52 41.8 441.28 40.17 439.33 36.85C438.23 34.99 437.61 32.88 436.52 31.01C434.57 32.89 425.88 36.24 423.16 36.96C421.11 37.51 418.37 37.01 416.28 37.02C412.9 37.03 408.77 37.09 407.78 33.22C405.84 34.08 403.39 34.15 401.57 35.07C400.8 35.45 400.39 36.45 399.62 36.83C396.61 38.3 393.54 39.68 390.5 41.08C388.67 41.92 387.12 44.56 385.11 44.99C381.15 45.84 372.25 38.8 367.73 40.06C359.98 42.2 350.97 43.69 344.68 37.19C343.42 35.88 342.22 35.04 341.81 33.22C337.25 34.99 332.99 38.5 328.39 39.96C327.27 40.32 325.95 39.78 324.82 40.05C320.42 41.1 318.83 41.68 314.7 39.22C313.45 38.48 312.01 38.12 311.19 36.66C310.22 34.93 309.4 32.95 308.62 31.08ZM0.07 127.49C11.18 127.49 22.28 127.49 33.39 127.49C35.26 127.49 43.48 126.99 44.09 128.27C29.41 128.17 14.74 128.07 0.07 127.97C0.07 127.81 0.07 127.65 0.07 127.49ZM172.49 127.94C172.35 128.09 172.21 128.23 172.08 128.38C141.39 128.35 110.71 128.33 80.03 128.3C79.91 128.19 79.79 128.07 79.67 127.95C110.61 127.95 141.55 127.95 172.49 127.94ZM233.1 128.26C227.41 128.28 221.71 128.29 216.02 128.3C215.9 128.18 215.78 128.07 215.66 127.95C218.72 126.26 225.34 127.49 228.88 127.49C230.18 127.49 232.52 127.02 233.1 128.26ZM44.12 256.05C39.1 256.13 34.09 256.2 29.08 256.28C28.95 256.24 28.83 256.2 28.7 256.16C28.47 255.7 28.24 255.24 28.01 254.79C29.01 253.71 30.02 252.63 31.02 251.55C30.92 247.74 32.37 246.93 33 243.86C31.89 241.87 29.22 240.74 28.19 238.77C27.39 237.25 27.76 228.74 28.96 227.67C29.02 225.22 29.79 214.86 31.02 213.5C30.95 210.92 31.38 204.19 33 202.57C33.27 200.47 33.53 198.36 33.8 196.25C25.63 194.29 25.81 186.2 27.92 179.48C28.22 178.52 27.7 177.39 28.14 176.46C28.91 174.82 30.23 173.26 30.92 171.58C31.83 169.38 31.04 166.53 32.19 164.32C32.57 163.59 37.28 158.23 37.95 157.65C38.06 154.64 42.42 148.56 45.37 147.17C46.03 146.86 46.83 147.19 47.51 146.92C49.52 146.16 51.57 144.88 53.52 143.94C54.97 143.24 56.01 141.74 57.55 141.11C59.47 140.33 62.02 141.37 63.63 142.19C68.22 144.51 64.15 152.12 65.37 155.97C68.03 156.22 71.69 155.28 73.83 153.77C74.74 153.13 75.37 151.59 76.42 151.15C77.68 150.63 78.43 151.08 79.53 150.06C80.8 151.4 85.36 152.25 86.83 155.38C88.06 158.01 86.83 162.83 87.12 165.74C88.1 166.18 89.08 166.62 90.06 167.06C91.13 166.62 91.73 165.32 92.89 165.06C96.01 164.38 101.03 166.33 101.95 169.81C103.61 176.04 100.84 187 102.2 193.85C103.95 193.92 105.71 193.99 107.46 194.06C108.96 195.55 110.47 197.04 111.98 198.53C112.02 200.43 112.65 203.85 111.88 205.59C110.45 208.81 107.87 211.29 107.02 214.8C106.75 215.92 107.27 217.23 106.93 218.34C104.62 225.77 105.41 234.11 103.82 241.84C98.63 242.85 96.98 246.11 97 251.14C97 252.91 96.72 254.29 98.01 255.6C93 255.6 87.99 255.6 82.97 255.6C83 253.4 82.5 251.21 84.02 249.52C83.98 247.2 86.14 244.45 87.19 242.39C87.73 241.32 89.25 240.77 89.81 239.72C91.07 237.38 90.41 235.48 91.02 232.94C91.19 232.24 91.79 231.98 91.96 231.3C92.71 228.4 91.51 224.98 92 222.02C92.13 221.25 92.79 221.05 92.97 220.34C93.07 219.91 94 209.97 93.98 209.87C93.63 208.43 91.62 207.9 91.1 206.57C90.23 204.3 89.7 201.62 89.05 199.32C87.51 193.9 89.81 186.07 88.84 180.29C82.44 179.09 74.9 174.55 73.87 167.36C67.89 168.59 64.64 170.31 58.76 167.28C57.52 166.64 56 166.18 55.21 164.77C54.21 162.97 53.74 160.61 52.41 159.08C50.49 161.25 49.16 164.16 47.86 166.67C46.91 168.51 44.93 169.44 44.15 171.46C43.68 172.68 44.32 174.14 43.96 175.37C43.64 176.46 41.7 180.82 41.01 181.53C43.12 183.71 45.72 185.73 46.86 188.49C48.54 192.56 46.11 202.4 45.96 206.62C44.41 208 44.01 215.23 43.97 217.55C42.93 218.59 43.01 219.32 43 220.79C42.98 221.88 42.67 223.64 43.12 224.65C44.09 226.89 47.91 227.84 48.01 230.5C48.1 233.1 48.61 236.78 47.97 239.29C47.78 240.02 47.13 240.24 47.01 241.03C46.79 242.44 47.36 244.08 46.92 245.45C45.78 248.99 43.73 252.02 44.12 256.05ZM256.17 167.61C256.22 167.74 256.27 167.86 256.31 167.98C256.17 169.76 256.02 171.54 255.88 173.31C250.12 171.87 245.62 167.95 239.41 168.09C237.8 169.86 235.8 168.51 233.75 169.08C224.52 171.64 218.73 168.65 213.5 161.05C211.79 162.68 209.29 163.1 207.29 164.22C197.58 169.68 185.1 172.99 180.72 159.19C178.48 160.33 176.99 164.52 175.8 166.72C174.82 168.55 172.87 169.47 172.11 171.49C171.65 172.7 172.32 174.16 171.92 175.4C171.03 178.2 168.93 180.83 168.05 183.6C167.37 185.78 168.29 188.58 168 190.84C167.89 191.75 167.24 192.03 167.03 192.86C166.28 195.87 166.76 200.73 167.15 203.79C168.3 203.9 169.45 204.01 170.6 204.12C171.71 205.37 173.39 205.52 174.78 206.32C178.68 208.57 181.11 213.18 182.34 216.97C183.98 215.84 185.61 216.07 187.6 216.01C189.09 214.32 192.35 215.05 194.48 215.05C195.7 216.26 197.23 216.45 198.68 217.22C201.12 218.51 202.48 222.7 203.38 225C205.48 223.46 213.1 220.05 215.53 220.06C217.64 217.9 228.21 218.86 230.76 220.32C231.81 220.92 231.9 222.2 232.52 223.05C234.55 222.37 236.57 221.7 238.6 221.03C241.38 217.72 246.2 216.9 249.77 214.77C251.87 213.53 253.39 211.41 255.88 210.81C256.04 216.23 256.21 221.65 256.37 227.07C256.22 227.2 256.07 227.32 255.92 227.45C255.14 227.32 254.35 227.18 253.57 227.05C249.75 230.63 239.08 232.32 236.57 235.02C232.52 235.02 228.48 235.02 224.43 235.02C223.68 234.19 223.09 234.28 222.19 233.75C221.12 233.13 221.06 231.87 220.38 231.05C218.24 231.44 212.51 234.15 210.36 235.25C209.3 235.79 208.76 237.31 207.71 237.86C204.73 239.43 200.93 240.56 198.53 243.05C196.26 243.13 192.56 243.12 191.24 240.83C190.73 239.93 190.81 239.36 190 238.6C190.28 235.17 190.56 231.74 190.84 228.31C189.76 228.23 188.68 228.14 187.6 228.05C186.42 229.02 185.77 228.66 184.44 229.18C182.47 229.95 181.02 231.53 179.5 233.07C178.56 233.37 177.61 233.68 176.67 233.98C175.59 233.66 174.51 233.34 173.43 233.02C172.19 231.68 169.78 230.14 169.07 228.46C167.93 225.74 169.29 221.32 168.87 218.36C167.97 217.92 167.06 217.48 166.15 217.04C163.55 217.73 162.25 220.38 158.51 218.94C153.65 217.09 153.96 211.56 153.98 207.43C154.01 202.91 153.09 197.4 154 192.98C154.15 192.24 154.83 191.96 154.98 191.23C155.95 186.42 154.77 181.47 156.03 176.79C156.52 175.01 158.14 173.32 158.87 171.65C158.97 171.43 160.01 165.01 160.02 164.53C162 162.23 163.99 159.94 165.97 157.65C166.1 153.05 170.45 150.28 173.43 147.09C179.91 146.76 183.92 138.93 190.51 141.96C192.24 142.76 193.51 143.9 193.98 145.91C194.79 149.37 192.35 152.23 193.26 155.92C194.34 155.96 195.42 156 196.5 156.04C197.6 154.94 198.33 155.44 199.63 154.89C200.67 154.45 208.91 149.63 209.45 149.07C211.06 149.03 211.72 148.28 213.1 148.04C220.57 146.75 223.53 150.55 225.24 156.86C226.72 157.2 228.21 157.54 229.69 157.88C231.06 156.37 232.76 157.55 234.48 156.96C239.16 155.34 244.51 153.01 249.93 154.05C251.67 154.38 254.11 156.54 255.8 155.62C255.92 159.62 256.05 163.62 256.17 167.61ZM226.98 255.65C229.02 255.71 231.06 255.78 233.1 255.84C232.47 257.17 229.47 256.61 228.07 256.61C227.68 258.49 225.76 258.92 225.12 260.53C224.85 261.18 223.85 268.52 224.01 269.25C224.44 271.14 227.41 271.94 227.95 273.82C229.04 277.65 227.31 287.18 226.07 290.6C225.18 293.05 225.99 296.08 225.09 298.56C224.31 300.72 225.77 302.72 224 304.57C223.41 308.35 222.81 312.12 222.22 315.9C228.61 316.97 228.95 321.28 228.99 326.83C229.01 328.78 229.55 331.08 228.04 332.5C227.92 336.03 226.09 337.57 225.08 340.63C224.34 342.84 224.67 345.25 223.92 347.46C223.33 349.17 220.95 349.97 220.14 351.56C218.43 354.92 214.65 363.35 210.58 364.98C209.3 365.5 207.89 365.64 206.63 366.1C201.77 367.87 199.04 372.79 193.46 370.16C192.64 369.77 191.71 369.74 191.2 368.78C188.85 364.39 191.63 361.06 190.84 356.35C188.2 355.79 186.86 357.03 184.36 357.17C184.04 357.56 180.34 360.56 179.75 360.87C178.52 361.51 177.68 360.84 176.67 361.99C174.32 360.3 171.08 360.24 169.19 356.71C167.72 353.99 169.53 349.27 168.77 346.26C167.76 345.86 166.75 345.47 165.74 345.07C165.06 345.58 164.27 346.72 163.48 347.03C160.32 348.27 155.05 345.71 154.03 342.39C152.25 336.56 155.48 324.61 153.85 318.33C152.2 317.94 150.01 318.62 148.45 317.97C144.51 316.34 142.75 310.38 144.1 306.63C144.89 304.42 146.93 302.79 147.89 300.7C148.91 298.46 148.32 296 149.04 293.7C149.22 293.12 149.83 292.94 149.97 292.33C150.81 288.78 149.93 276.66 151.99 274.62C151.94 269.66 154.29 265.71 158.93 263.69C158.86 261.53 158.79 259.37 158.72 257.21C156.53 255.61 145.28 256.61 141.99 256.61C141.98 256.46 141.96 256.32 141.95 256.17C147.52 256.14 153.09 256.11 158.66 256.08C163.25 256.08 167.83 256.08 172.42 256.08C173.61 256.12 174.8 256.16 176 256.2C175.01 256.34 174.02 256.47 173.03 256.61C172.88 262.04 171.22 265.15 168.79 269.7C167.78 271.58 165.77 272.53 165.07 274.64C164.59 276.11 165.36 277.89 164.95 279.37C164.75 280.1 164.11 280.27 164 281.1C163.63 284 164.48 287.11 163.99 290C163.82 290.99 163.1 291.37 163 292.43C162.8 294.53 163.71 296.97 162.03 298.5C162.01 299.85 162 301.2 161.99 302.55C171.02 312.27 164.21 321.94 167.36 332.01C174.55 332.36 180.37 338.5 182.34 345C184.03 343.8 185.28 344.51 187.18 344.06C187.86 343.9 188.14 343.3 188.82 343.13C196.08 341.26 201.31 347.13 203.38 353.03C204.11 352.46 211.26 342.03 211.85 340.78C212.99 338.35 211.59 335.81 213.95 333.71C214.28 332.63 214.6 331.55 214.93 330.47C212.95 328.18 210.98 325.89 209 323.59C208.95 320.5 208.06 310.46 210.02 308.62C209.97 306.93 210.85 300.7 211.93 299.71C212.05 296.48 213.84 290.3 212.9 287.6C212.16 285.49 208.61 284.51 208.03 282.29C206.67 277.18 208.84 271.51 209.04 266.52C211.39 264.33 211.19 259.28 210.87 256.17C216.24 256 221.61 255.82 226.98 255.65ZM0.07 356.15C0.07 350.48 0.07 344.81 0.07 339.14C3.22 340.13 6.36 341.12 9.51 342.12C13.05 345.71 18.05 343.04 22.46 343.11C27.09 338.84 40.5 345.01 42.3 350.97C50.46 346.03 61.62 339.99 70.84 345.43C73.41 346.95 74.1 350.79 75.48 353.09C78.33 348.92 81.17 344.76 84.01 340.59C83.89 335.68 86.59 332.76 87.94 328.43C88.61 326.27 87.72 323.44 88 321.18C88.1 320.37 88.75 320.2 88.96 319.5C89.81 316.6 89.24 311.31 88.84 308.34C87.8 308.02 86.65 308.34 85.63 308.01C79.92 306.16 75.44 300.67 73.73 295.26C68.62 297 59.06 298.78 55.35 292.94C54.21 291.15 53.6 288.96 52.49 287.17C50.84 288.12 49.2 289.08 47.56 290.03C44.6 290.14 42.1 292.11 39.43 293.01C35.57 294.31 25.08 293.71 23.68 289.21C21.74 290.5 19.41 290.28 17.39 291.22C16.66 291.56 16.28 292.62 15.52 292.96C12.49 294.33 9.4 295.73 6.39 297.23C4.17 298.33 2.72 301 0.07 301.12C0.07 295.74 0.07 290.36 0.07 284.98C5.91 285.48 10.45 279 16.39 279.08C20.14 275.95 29.35 276 33.63 278.25C34.7 278.81 34.93 280.1 35.42 281.03C37.44 280.38 39.46 279.73 41.49 279.08C42.7 277.92 44.22 277.7 45.64 276.93C46.67 276.37 47.22 274.91 48.24 274.32C49.92 273.35 51.83 272.77 53.56 271.94C55.06 271.23 56.02 269.62 57.69 269.12C59.76 268.49 63.64 269.45 64.79 271.38C67.33 275.68 64.21 279.33 65.28 283.93C67.98 284.33 71.36 283.21 73.69 281.91C74.71 281.34 75.25 279.75 76.36 279.26C77.7 278.66 78.37 279.18 79.53 278.06C80.68 279.26 81.43 278.57 82.69 279.29C84.3 280.22 85.6 282.26 86.95 283.52C86.98 286.9 87 290.27 87.02 293.64C88.03 294.12 89.04 294.59 90.06 295.07C90.98 294.65 91.63 293.47 92.56 293.15C95.83 292.03 100.38 294.28 101.84 297.41C102.92 299.72 102 304.44 102.01 307C102.02 310.84 102.66 315.36 101.98 319.13C101.8 320.11 101.09 320.49 101.01 321.57C100.78 324.5 101.93 328.66 100.95 331.43C100.73 332.04 100.16 332.24 100.02 332.91C99.16 337.11 98.28 337.22 97.1 340.61C96.47 342.41 97.67 344.03 96.07 345.45C95.92 348.77 93.64 348.86 92.18 351.39C89.89 355.33 87.53 362.67 82.65 364.94C81.95 365.27 81.15 364.95 80.45 365.23C77.56 366.38 72.69 368.62 70.63 371.03C69.44 371.11 67.81 371.4 66.65 371.03C63.37 370 59.82 364.68 62.99 361.64C62.95 359.88 62.91 358.13 62.88 356.38C60.27 355.75 58.93 357.1 56.46 357.1C54.08 359.59 49.72 361.52 46.64 362.93C45.35 363.52 44.61 363 43.51 364.09C33.84 364.22 33.98 363.19 30.65 355.16C29.01 355.04 27.75 355.35 26.51 354.13C24.28 356.29 16.05 355.33 13.56 358.07C10.86 358.07 8.16 358.06 5.46 358.05C3.67 357.42 1.87 356.79 0.07 356.15Z" fill="#6abe30" fill-rule="evenodd" stroke="#6abe30" stroke-width="0.25" stroke-linejoin="round"/>
</svg>